<?xml version="1.0" encoding="UTF-8" standalone="no"?>
<!-- Created with Inkscape (http://www.inkscape.org/) -->

<svg
   width="178.03665mm"
   height="240.16325mm"
   viewBox="0 0 178.03665 240.16325"
   version="1.1"
   id="svg1"
   xml:space="preserve"
   xmlns:xlink="http://www.w3.org/1999/xlink"
   xmlns="http://www.w3.org/2000/svg"
   xmlns:svg="http://www.w3.org/2000/svg"><defs
     id="defs1"><linearGradient
       id="linearGradient355"><stop
         style="stop-color:#983cbe;stop-opacity:1;"
         offset="0.36144853"
         id="stop355" /><stop
         style="stop-color:#1e4294;stop-opacity:1;"
         offset="0.64374971"
         id="stop356" /></linearGradient><linearGradient
       xlink:href="#linearGradient355"
       id="linearGradient356"
       x1="236.49567"
       y1="122.46184"
       x2="398.39542"
       y2="197.95692"
       gradientUnits="userSpaceOnUse"
       gradientTransform="translate(-228.42723,-63.019593)" /></defs><path
     style="font-weight:bold;font-size:133.333px;font-family:Corbel;-inkscape-font-specification:'Corbel Bold';text-align:center;text-anchor:middle;white-space:pre;fill:#103050;stroke-width:3.49727"
     d="m 19.303665,212.12496 q 3.256217,4.86693 5.291351,8.64176 h 0.135675 q -0.271352,-6.19643 -0.271352,-9.02163 v -14.38714 h 5.540089 V 229.1236 H 24.18799 l -9.859099,-14.62453 q -2.60045,-3.7986 -5.3817995,-8.80797 H 8.8114172 q 0.2713485,5.84033 0.2713485,9.04537 V 229.1236 H 3.5426769 v -31.76565 h 5.8114408 z m 26.931614,17.59217 q -3.301439,0 -5.472248,-1.16332 -2.170813,-1.18706 -3.278828,-3.1813 -0.58793,-1.06836 -0.881893,-2.35038 -0.271352,-1.28201 -0.271352,-2.84894 v -14.05475 h 5.359188 v 13.46122 q 0,1.16332 0.158289,2.01802 0.158289,0.83093 0.474864,1.44819 0.542704,1.04462 1.537656,1.56693 0.994956,0.49857 2.374324,0.49857 1.447208,0 2.464776,-0.56979 1.040178,-0.56979 1.560271,-1.7331 0.520089,-1.11584 0.520089,-3.11012 v -13.57992 h 5.359189 v 14.05475 q 0,2.80146 -0.927119,4.72449 -0.520089,1.0921 -1.356757,1.99428 -0.814052,0.87841 -1.944682,1.51941 -1.10802,0.61727 -2.532613,0.94966 -1.401983,0.3561 -3.143154,0.3561 z m 43.77801,-14.60079 q 0,-0.73597 -0.04523,-1.37701 -0.04522,-0.64101 -0.158285,-1.1158 -0.248741,-1.04462 -0.972345,-1.68563 -0.723601,-0.64101 -2.035135,-0.66475 -0.700989,0 -1.447205,0.21366 -0.746215,0.21366 -1.492434,0.61727 -0.7236,0.37987 -1.401979,0.94966 -0.655767,0.54605 -1.198471,1.23454 V 229.1236 H 75.90302 v -14.00726 q 0,-0.73597 -0.04523,-1.37701 -0.04523,-0.64101 -0.158289,-1.1158 -0.248737,-1.04462 -0.972341,-1.68563 -0.700993,-0.64101 -2.035135,-0.66475 -0.700993,0 -1.447208,0.21366 -0.746215,0.21366 -1.492431,0.61727 -0.723604,0.37987 -1.401982,0.94966 -0.655767,0.54605 -1.198468,1.23454 v 15.83532 h -5.359188 v -23.00516 h 4.432069 l 0.497478,3.20505 h 0.09045 q 0.474864,-0.71223 1.198468,-1.40072 0.723604,-0.6885 1.628108,-1.21081 0.927116,-0.5223 2.01252,-0.83094 1.108019,-0.33237 2.329102,-0.33237 2.170808,0 3.889365,1.02087 1.741172,0.99713 2.645676,3.13384 h 0.09045 q 0.633152,-0.92592 1.401982,-1.68563 0.791441,-0.75972 1.741168,-1.30577 0.94973,-0.54604 2.035135,-0.85468 1.108019,-0.30863 2.351712,-0.30863 2.351713,0.0237 3.934596,1.04461 1.605493,0.99713 2.464772,2.75397 0.226126,0.45109 0.384415,0.99714 0.158289,0.52231 0.248737,1.18706 0.113063,0.66475 0.158289,1.47193 0.04523,0.80723 0.04523,1.85181 v 14.26843 h -5.359189 z m 26.637651,-13.4375 q -2.26126,0 -4.18333,0.78346 -1.89946,0.78346 -3.27883,2.27915 -1.35675,1.49569 -2.12558,3.70364 -0.76883,2.18416 -0.76883,5.00936 0,2.80147 0.70099,4.93815 0.70099,2.11298 2.01252,3.53744 1.31153,1.42449 3.18838,2.16045 1.89946,0.71223 4.2964,0.71223 1.71855,0 3.50495,-0.28488 1.7864,-0.28491 3.34667,-0.83096 v 5.00941 q -1.58289,0.47479 -3.41451,0.73596 -1.83162,0.28488 -3.79892,0.28488 -3.84414,0 -6.76116,-1.13958 -2.91703,-1.16332 -4.88433,-3.25252 -1.94468,-2.11298 -2.93964,-5.03314 -0.97234,-2.94387 -0.97234,-6.4813 0,-3.63243 1.04018,-6.74251 1.06279,-3.11009 3.03009,-5.38924 1.98991,-2.27915 4.95216,-3.58491 2.98486,-1.30577 6.73856,-1.32951 1.92207,0 3.64063,0.28489 1.71856,0.26116 3.09792,0.75972 v 4.93816 q -1.809,-0.59353 -3.36928,-0.83094 -1.56026,-0.23741 -3.0527,-0.23741 z m 21.93423,8.38062 q -1.40198,0.0237 -2.66829,0.73597 -1.26631,0.68852 -2.23865,1.87558 v 10.25617 q 0.33919,0.40361 0.81406,0.80718 0.47486,0.40361 1.06279,0.73601 0.58793,0.33235 1.28892,0.54601 0.7236,0.21369 1.49243,0.21369 1.24369,0 2.21604,-0.54605 0.97234,-0.56979 1.60549,-1.59067 0.65577,-1.02088 0.99496,-2.42159 0.33918,-1.42446 0.33918,-3.15756 0,-1.85181 -0.3618,-3.25256 -0.33919,-1.40072 -0.99495,-2.32664 -0.63315,-0.92588 -1.53766,-1.40071 -0.9045,-0.47483 -2.01252,-0.47483 z m 0.70099,19.65767 q -1.76378,0 -3.21099,-0.66475 -1.4246,-0.68849 -2.37432,-1.68563 h -0.0905 q 0.0226,0.47483 0.0452,1.35328 0.0226,0.85466 0.0226,1.87554 v 9.56768 h -5.35919 v -34.04481 h 4.70343 l 0.22612,2.58778 h 0.0905 q 0.99496,-1.37698 2.55523,-2.25541 1.56027,-0.90216 3.61801,-0.90216 1.7864,0 3.50496,0.71223 1.74117,0.6885 3.07531,2.13671 1.33415,1.44821 2.12559,3.65615 0.81405,2.2079 0.81405,5.24676 0,3.20508 -0.85927,5.55546 -0.85929,2.32663 -2.26127,3.86979 -1.40198,1.51945 -3.12054,2.25541 -1.69594,0.73597 -3.50495,0.73597 z m 24.7608,-19.65767 q -1.40198,0.0237 -2.66828,0.73597 -1.26631,0.68852 -2.23865,1.87558 v 10.25617 q 0.33919,0.40361 0.81405,0.80718 0.47487,0.40361 1.06279,0.73601 0.58793,0.33235 1.28892,0.54601 0.72361,0.21369 1.49243,0.21369 1.2437,0 2.21604,-0.54605 0.97234,-0.56979 1.60549,-1.59067 0.65577,-1.02088 0.99496,-2.42159 0.33919,-1.42446 0.33919,-3.15756 0,-1.85181 -0.3618,-3.25256 -0.33919,-1.40072 -0.99496,-2.32664 -0.63315,-0.92588 -1.53766,-1.40071 -0.9045,-0.47483 -2.01252,-0.47483 z m 0.70099,19.65767 q -1.76378,0 -3.21099,-0.66475 -1.42459,-0.68849 -2.37432,-1.68563 h -0.0905 q 0.0226,0.47483 0.0452,1.35328 0.0226,0.85466 0.0226,1.87554 v 9.56768 h -5.35919 v -34.04481 h 4.70342 l 0.22613,2.58778 h 0.0905 q 0.99495,-1.37698 2.55522,-2.25541 1.56027,-0.90216 3.61802,-0.90216 1.7864,0 3.50495,0.71223 1.74117,0.6885 3.07532,2.13671 1.33414,1.44821 2.12558,3.65615 0.81406,2.2079 0.81406,5.24676 0,3.20508 -0.85928,5.55546 -0.85928,2.32663 -2.26126,3.86979 -1.40198,1.51945 -3.12054,2.25541 -1.69595,0.73597 -3.50496,0.73597 z"
     id="text374"
     aria-label="NumCpp" /><path
     style="opacity:1;fill:url(#linearGradient356);stroke:none;stroke-width:0.600001"
     d="m 0.28382106,55.151587 -0.23772,9.06741 L 1.0685246e-6,135.97954 0.19211106,138.95723 l 0.26154,0.95935 0.23773,0.83203 1.06975004,2.4791 0.57732,1.00184 1.12069,1.69801 0.67921,0.83203 1.23955,1.39237 1.18861,1.13768 2.03035,1.36221 53.1660799,31.14561 21.70828,11.81469 2.689525,0.76843 h 2.68952 2.97769 l 2.88163,-0.57633 1.72897,-0.76843 2.88162,-1.63292 70.023604,-40.94316 1.87307,-1.36878 2.23327,-2.11319 1.77699,-2.20925 0.91252,-1.70497 0.69639,-1.60891 0.48027,-1.60891 0.5043,-1.80102 0.14407,-0.81646 0.072,-1.32074 -0.33618,-77.059593 -0.28816,-3.93823 -0.67238,-2.30531 -1.15266,-2.3053 -1.82504,-2.59347 -1.87306,-1.75299 -2.90564,-1.99313 -33.198,-19.40617 L 96.119886,1.6640479 93.844546,0.61127784 90.550396,-2.159788e-6 87.697726,0.10187784 l -2.44515,0.37356 -1.901785,0.88297006 -2.37722,0.98485 -3.9394,2.20742 -16.0972,9.1692891 -52.4687199,30.29263 -2.44514,1.69801 -1.49426,1.49426 -1.35841,1.63009 -1.12069,1.83386 -0.71317,1.49426 z"
     id="path355" /><g
     id="layer1"
     transform="translate(-15.981664,-33.635716)"><g
       id="g374"
       transform="matrix(1.1807125,0,0,1.1807125,-22.77214,-54.910884)"><path
         style="display:inline;fill:#023271"
         d="m 311.57061,230.44025 c -1.5591,-1.02757 -5.41023,-3.36596 -8.55806,-5.19643 -3.14783,-1.83047 -9.2952,-5.41572 -13.66083,-7.96722 -4.36562,-2.5515 -9.42578,-5.49482 -11.24479,-6.5407 -1.81901,-1.04588 -5.53226,-3.1981 -8.25168,-4.78271 -2.71941,-1.5846 -5.30902,-3.08392 -5.75468,-3.33181 l -0.8103,-0.45072 v -29.78817 -29.78818 l 0.99218,-1.03598 c 0.96785,-1.01056 8.20799,-5.48752 20.30677,-12.55674 3.20146,-1.87058 10.22615,-6.02529 15.61042,-9.23268 10.30302,-6.13747 14.28013,-8.36146 14.9676,-8.36987 0.4733,-0.006 1.44651,0.54499 22.07406,12.49233 23.19402,13.43382 28.24425,16.41493 29.10417,17.18001 l 0.79375,0.70619 0.0695,30.00271 0.0695,30.00271 -0.59863,0.54252 c -0.32924,0.29839 -2.02738,1.37076 -3.77363,2.38306 -1.74625,1.0123 -7.46125,4.37648 -12.7,7.47595 -9.73654,5.76056 -12.14343,7.17504 -24.60624,14.46055 -9.52446,5.56781 -9.68273,5.65317 -10.49195,5.65869 -0.43182,0.003 -1.79422,-0.71484 -3.53708,-1.86351 z m 2.25507,-8.07521 c 0.0728,-3.18956 0.0989,-9.03787 0.058,-12.99624 l -0.0743,-7.19705 -2.17469,-1.30994 c -1.19607,-0.72047 -5.09171,-3.00636 -8.65697,-5.07976 -3.56526,-2.0734 -7.47394,-4.34721 -8.68597,-5.05291 -3.57348,-2.08065 -3.22028,-3.36325 -3.22028,11.69392 v 12.97701 l 1.91823,1.1914 c 2.81187,1.74645 5.92085,3.58591 10.25066,6.06491 2.11112,1.20871 5.20354,2.98331 6.87204,3.94356 1.66851,0.96025 3.15679,1.70504 3.3073,1.6551 0.1719,-0.0571 0.32283,-2.24691 0.40594,-5.89 z m 15.34583,-1.26068 c 4.87495,-2.83521 9.13143,-5.34921 9.45885,-5.58668 l 0.59532,-0.43175 v -12.81994 c 0,-8.53879 -0.0901,-12.81994 -0.26991,-12.81994 -0.14845,0 -3.69056,1.98637 -7.87135,4.41416 -4.1808,2.42779 -8.49442,4.92265 -9.58583,5.54414 -1.0914,0.62149 -2.57968,1.52405 -3.30729,2.00569 l -1.32291,0.87571 -0.0689,12.564 c -0.0379,6.91021 -0.008,12.723 0.0665,12.91731 0.15854,0.41364 -0.13551,0.57286 12.30553,-6.6627 z m -40.48125,-20.4168 V 187.5874 l -1.38906,-0.88725 c -0.76398,-0.48799 -3.82984,-2.31255 -6.81302,-4.05458 -15.60742,-9.114 -14.89315,-8.75235 -15.17907,-7.68545 -0.33721,1.25829 -0.18418,25.21 0.16397,25.66386 0.1819,0.23713 3.78354,2.4449 8.00364,4.90617 12.37747,7.21883 14.23108,8.25757 14.73544,8.25757 0.45465,0 0.4781,-0.64277 0.4781,-13.10016 z m 58.54116,10.01492 c 2.6546,-1.55135 5.54092,-3.26114 6.41405,-3.79952 0.87312,-0.53838 3.64133,-2.19325 6.15156,-3.67747 l 4.56406,-2.6986 v -12.81646 c 0,-8.95314 -0.0856,-12.81646 -0.28404,-12.81646 -0.15622,0 -2.21004,1.11656 -4.56406,2.48125 -2.35401,1.36469 -6.8994,3.9967 -10.10086,5.84892 -3.20145,1.85221 -6.20778,3.65874 -6.68072,4.0145 l -0.8599,0.64684 v 12.64244 c 0,11.18053 0.0619,12.99522 0.44307,12.99522 0.0497,0 2.26224,-1.2693 4.91684,-2.82066 z m -33.33927,-24.69937 c 0.10932,-6.91039 0.13855,-12.82536 0.0649,-13.14438 -0.16042,-0.6953 -2.12882,-1.93711 -11.64078,-7.34385 -3.78355,-2.15062 -7.69043,-4.38276 -8.68197,-4.96032 -2.7775,-1.61784 -2.56283,-2.62868 -2.56283,12.06739 v 12.82584 l 0.59532,0.6611 c 0.90492,1.00493 20.98236,12.62984 21.62968,12.52367 0.34302,-0.0563 0.42385,-1.77008 0.59564,-12.62945 z m 13.69186,6.61441 c 4.14734,-2.42394 8.39001,-4.90022 9.42814,-5.50284 1.03814,-0.60262 1.96828,-1.30615 2.067,-1.56339 0.18647,-0.48595 0.21401,-26.02386 0.0283,-26.20962 -0.11407,-0.11407 -1.73706,0.80628 -8.08382,4.58409 -2.25557,1.34259 -6.18463,3.65587 -8.73125,5.14061 -2.54661,1.48474 -4.83856,2.88602 -5.09322,3.11395 -0.47357,0.42385 -0.75412,25.88228 -0.29033,26.34606 0.20013,0.20014 0.62757,-0.0365 10.67522,-5.90886 z m -38.89375,-20.78819 c 0.1619,-15.19166 0.31424,-13.93638 -1.85208,-15.26164 -3.10058,-1.8968 -15.43353,-9.01404 -17.4625,-10.07747 -1.0914,-0.57202 -2.18387,-1.21219 -2.42771,-1.42259 -0.24383,-0.2104 -0.66055,-0.34078 -0.92604,-0.28974 -0.52209,0.10038 -0.92785,15.4262 -0.615,23.22914 l 0.13229,3.29953 4.63021,2.75344 c 8.4425,5.0205 17.85553,10.35303 18.12396,10.26731 0.16892,-0.0539 0.31241,-4.5726 0.39687,-12.49798 z m 58.44732,9.5047 c 11.02822,-6.41862 16.59825,-9.71958 17.02507,-10.08951 0.61373,-0.53193 0.72752,-26.16358 0.1172,-26.39778 -0.19021,-0.073 -1.52966,0.56675 -2.97657,1.42165 -1.4469,0.8549 -4.71432,2.7823 -7.26094,4.28311 -2.54661,1.50081 -5.46364,3.22628 -6.48229,3.83439 -1.01864,0.6081 -2.71529,1.60691 -3.77031,2.21957 l -1.91823,1.11393 v 13.08521 c 0,11.99407 0.0365,13.0852 0.43743,13.0852 0.24058,0 2.41347,-1.15009 4.82864,-2.55577 z m -29.90453,-12.31152 c 10.19673,-5.78851 20.14054,-11.84038 20.14054,-12.25767 0,-0.5084 -0.71701,-0.99347 -5.29166,-3.57992 -2.4011,-1.35754 -7.14811,-4.05305 -10.54893,-5.99002 -6.65955,-3.79301 -6.58042,-3.76231 -7.80838,-3.02932 -1.32343,0.78998 -10.85568,6.40271 -14.31873,8.43109 -1.74625,1.02281 -3.85961,2.24277 -4.69635,2.71102 -2.86921,1.60565 -3.36636,1.18662 11.44322,9.64504 9.50906,5.43105 9.00712,5.24668 11.08029,4.06978 z m -19.27088,-18.31318 c 13.26981,-7.84142 13.87913,-8.22577 13.87913,-8.75451 0,-0.36274 -2.53298,-1.94272 -9.93533,-6.1973 -5.46443,-3.14073 -10.2525,-5.91878 -10.64017,-6.17345 -1.36242,-0.895 -1.03529,-1.04723 -12.49741,5.81586 -12.35509,7.39776 -11.78137,6.93543 -9.99346,8.05319 3.05269,1.90848 20.64183,11.84131 20.98516,11.85062 0.2246,0.006 3.91554,-2.0614 8.20208,-4.59441 z m 45.6435,2.93966 c 1.59282,-0.9162 6.50385,-3.78986 10.91339,-6.38593 9.22366,-5.43033 8.99745,-5.17169 6.00557,-6.86639 -1.01864,-0.577 -5.93432,-3.40959 -10.92372,-6.29465 -4.9894,-2.88505 -9.25497,-5.24555 -9.47904,-5.24555 -0.73986,0 -21.79828,12.76555 -21.79828,13.21405 0,0.36636 8.28161,5.36526 16.80105,10.14137 1.16416,0.65265 2.83104,1.61749 3.70416,2.14409 1.94462,1.17285 1.3577,1.25972 4.77687,-0.70699 z m -24.37404,-15.39373 c 11.48792,-6.7313 17.87738,-10.70506 17.87738,-11.11835 0,-0.45479 -0.97439,-1.05357 -11.50937,-7.0727 -4.94771,-2.82686 -9.24576,-5.29668 -9.55122,-5.48849 -0.86385,-0.54245 -1.32596,-0.32311 -9.63107,4.57151 -15.04894,8.8691 -14.05312,8.11607 -12.25355,9.26616 2.77743,1.77502 20.69634,12.05502 21.04628,12.07415 0.10658,0.006 1.91628,-0.9987 4.02155,-2.23228 z"
         id="path351"
         transform="translate(-206.93366,-14.493781)" /><path
         style="opacity:1;fill:#de89fa;fill-opacity:1;stroke:none;stroke-width:0.943904;stroke-dasharray:none;stroke-opacity:1"
         d="m 108.02376,125.80328 c -0.13142,-0.0727 -0.2719,-0.11188 -0.31218,-0.087 -0.0403,0.0249 -0.0733,-0.003 -0.0733,-0.0621 0,-0.0591 -0.0432,-0.0807 -0.096,-0.048 -0.0528,0.0327 -0.0961,0.011 -0.0961,-0.048 0,-0.0591 -0.0432,-0.0807 -0.096,-0.048 -0.0528,0.0326 -0.0961,0.011 -0.0961,-0.048 0,-0.0591 -0.0432,-0.0807 -0.096,-0.048 -0.0528,0.0327 -0.0961,0.011 -0.0961,-0.048 0,-0.0591 -0.0432,-0.0807 -0.0961,-0.048 -0.0528,0.0327 -0.0961,0.0218 -0.0961,-0.0241 0,-0.0459 -0.41063,-0.29553 -0.91252,-0.55479 -0.50188,-0.25926 -0.91252,-0.50778 -0.91252,-0.55228 0,-0.0445 -0.0432,-0.0542 -0.0961,-0.0215 -0.0528,0.0327 -0.096,0.011 -0.096,-0.048 0,-0.0591 -0.0432,-0.0807 -0.0961,-0.048 -0.0528,0.0327 -0.096,0.0183 -0.096,-0.0319 0,-0.0502 -0.10806,-0.11844 -0.24014,-0.15159 -0.13207,-0.0331 -0.24013,-0.10522 -0.24013,-0.16016 0,-0.0549 -0.0432,-0.0732 -0.0961,-0.0405 -0.0528,0.0326 -0.0961,0.011 -0.0961,-0.048 0,-0.0591 -0.0432,-0.0807 -0.0961,-0.048 -0.0528,0.0327 -0.0961,0.0136 -0.0961,-0.0424 0,-0.0559 -0.0648,-0.10172 -0.14408,-0.10172 -0.0793,0 -0.14408,-0.0432 -0.14408,-0.0961 0,-0.0528 -0.0428,-0.0961 -0.095,-0.0961 -0.0523,0 -0.53039,-0.24854 -1.06249,-0.55231 -0.53209,-0.30378 -1.08366,-0.61306 -1.22571,-0.6873 -0.14204,-0.0742 -0.27276,-0.17177 -0.29047,-0.21672 -0.0177,-0.045 -0.0718,-0.0573 -0.12007,-0.0274 -0.0483,0.0299 -0.0879,0.006 -0.0879,-0.0531 0,-0.0591 -0.0432,-0.0807 -0.0961,-0.048 -0.0528,0.0326 -0.0961,0.011 -0.0961,-0.048 0,-0.0591 -0.0432,-0.0807 -0.0961,-0.048 -0.0528,0.0327 -0.0961,0.0136 -0.0961,-0.0424 0,-0.0559 -0.0648,-0.10172 -0.14408,-0.10172 -0.0793,0 -0.144085,-0.0458 -0.144085,-0.10173 0,-0.0559 -0.04323,-0.075 -0.09605,-0.0424 -0.05283,0.0327 -0.09605,0.011 -0.09605,-0.048 0,-0.0591 -0.04322,-0.0807 -0.09605,-0.048 -0.05283,0.0327 -0.09605,0.0165 -0.09605,-0.0358 0,-0.0524 -0.313378,-0.25485 -0.696394,-0.44997 -0.383016,-0.19513 -0.874599,-0.47732 -1.092406,-0.6271 -0.217808,-0.14977 -0.423125,-0.2452 -0.456259,-0.21207 -0.03313,0.0331 -0.06024,0.007 -0.06024,-0.0575 0,-0.0647 -0.04323,-0.091 -0.09605,-0.0584 -0.05283,0.0327 -0.09605,0.0136 -0.09605,-0.0423 0,-0.0559 -0.06484,-0.10173 -0.144081,-0.10173 -0.07925,0 -0.144082,-0.0458 -0.144082,-0.10172 0,-0.0559 -0.04323,-0.075 -0.09605,-0.0424 -0.05283,0.0327 -0.09605,0.011 -0.09605,-0.048 0,-0.0591 -0.04323,-0.0807 -0.09606,-0.048 -0.05283,0.0326 -0.09605,0.0136 -0.09605,-0.0424 0,-0.0559 -0.06123,-0.10172 -0.136078,-0.10172 -0.07484,0 -0.150484,-0.0377 -0.168095,-0.0838 -0.01762,-0.0461 -0.269751,-0.20329 -0.560316,-0.34933 -0.290563,-0.14603 -0.756065,-0.41089 -1.034449,-0.58857 -0.278382,-0.17768 -0.548535,-0.32305 -0.60034,-0.32305 -0.0518,0 -0.09419,-0.0458 -0.09419,-0.10173 0,-0.056 -0.04322,-0.075 -0.09605,-0.0424 -0.05283,0.0327 -0.09605,0.011 -0.09605,-0.048 0,-0.0591 -0.04323,-0.0807 -0.09605,-0.048 -0.05283,0.0327 -0.09605,0.0136 -0.09605,-0.0424 0,-0.0559 -0.06484,-0.10172 -0.144082,-0.10172 -0.07925,0 -0.144081,-0.0458 -0.144081,-0.10172 0,-0.0559 -0.04323,-0.075 -0.09606,-0.0424 -0.05283,0.0326 -0.09605,0.011 -0.09605,-0.048 0,-0.0591 -0.0387,-0.0835 -0.08599,-0.0542 -0.04729,0.0292 -0.111823,-0.0142 -0.143401,-0.0965 -0.03158,-0.0823 -0.100944,-0.12272 -0.154146,-0.0898 -0.0532,0.0329 -0.09673,0.0115 -0.09673,-0.0476 0,-0.0591 -0.04323,-0.0807 -0.09605,-0.048 -0.05283,0.0326 -0.09605,0.011 -0.09605,-0.048 0,-0.0591 -0.04322,-0.0807 -0.09605,-0.048 -0.05283,0.0327 -0.09605,0.0197 -0.09605,-0.0287 0,-0.0484 -0.205317,-0.19471 -0.456258,-0.32503 -0.250942,-0.13032 -0.755229,-0.42822 -1.120638,-0.662 -0.365408,-0.23378 -0.700397,-0.41425 -0.744421,-0.40105 -0.04402,0.0132 -0.08004,-0.0218 -0.08004,-0.0777 0,-0.0559 -0.04322,-0.075 -0.09605,-0.0424 -0.05283,0.0327 -0.09605,0.0136 -0.09605,-0.0424 0,-0.056 -0.06484,-0.10173 -0.144082,-0.10173 -0.07925,0 -0.144081,-0.0458 -0.144081,-0.10172 0,-0.0559 -0.04322,-0.075 -0.09605,-0.0424 -0.05283,0.0327 -0.09605,0.006 -0.09605,-0.0584 0,-0.0648 -0.02429,-0.0935 -0.05395,-0.0638 -0.02967,0.0297 -0.16566,-0.0496 -0.302191,-0.1761 -0.136527,-0.12653 -0.290298,-0.23006 -0.341709,-0.23006 -0.126754,0 -1.186635,-0.64011 -1.631463,-0.98531 -0.198112,-0.15374 -0.360204,-0.35761 -0.360204,-0.45303 0,-0.24678 1.249542,-1.36549 1.857912,-1.66338 0.281654,-0.13791 0.567669,-0.31771 0.63559,-0.39954 0.06792,-0.0818 0.166881,-0.1488 0.219919,-0.1488 0.118899,0 1.728486,-0.97104 1.817465,-1.09645 0.0354,-0.0499 0.125879,-0.0997 0.201068,-0.11077 0.150611,-0.0221 0.954913,-0.50779 1.031306,-0.62276 0.0644,-0.0969 1.516406,-0.95257 1.79845,-1.0598 0.323765,-0.1231 2.566132,-1.45544 2.604039,-1.54724 0.01762,-0.0426 0.08965,-0.0775 0.160092,-0.0775 0.07044,0 0.14248,-0.0349 0.160091,-0.0776 0.04246,-0.10293 1.549485,-0.99911 2.097186,-1.24713 0.237736,-0.10766 0.778041,-0.41509 1.200684,-0.68319 0.42264,-0.2681 0.8873,-0.53536 1.03258,-0.59391 0.14528,-0.0586 0.26415,-0.14089 0.26415,-0.18296 0,-0.0743 1.8227,-1.15342 1.94829,-1.15342 0.0926,0 2.98961,-1.65632 3.05023,-1.74392 0.15194,-0.21953 1.41158,-0.674474 1.90874,-0.689376 0.48797,-0.01463 0.61144,0.02847 1.35341,0.472266 0.44906,0.2686 0.84917,0.4951 0.88913,0.50334 0.04,0.008 0.23448,0.12073 0.43225,0.24998 0.33071,0.21613 5.97672,3.47417 7.08338,4.08747 0.26415,0.14639 2.03635,1.16193 3.93822,2.25675 1.90188,1.09482 3.50992,1.99932 3.57342,2.01001 0.0635,0.0107 0.19318,0.0871 0.28816,0.16984 0.095,0.0827 0.71301,0.46621 1.37339,0.85219 0.66037,0.38597 1.37357,0.81859 1.58489,0.96137 0.21132,0.14277 0.40684,0.25414 0.43449,0.24748 0.077,-0.0185 0.86225,0.72812 0.86225,0.81989 0,0.20624 -2.56188,1.94346 -5.57116,3.77783 -3.03159,1.84797 -5.73337,3.4812 -5.8181,3.51704 -0.0491,0.0208 -1.15701,0.67531 -2.46207,1.45455 -1.30505,0.77925 -2.40387,1.41681 -2.44182,1.41681 -0.0379,0 -0.13723,0.0602 -0.22064,0.13379 -0.1725,0.1522 -5.20049,3.03782 -5.28408,3.0326 -0.03,-0.002 -0.16201,-0.0629 -0.29342,-0.13566 z"
         id="path363" /><path
         style="opacity:1;fill:#cc71ff;fill-opacity:1;stroke:none;stroke-width:0.471953;stroke-dasharray:none;stroke-opacity:1"
         d="m 133.36889,140.70081 c -0.0594,-0.0115 -0.10807,-0.0402 -0.10807,-0.064 0,-0.0238 -0.0324,-0.0307 -0.072,-0.0155 -0.0396,0.0152 -0.072,0.002 -0.072,-0.0284 0,-0.0308 -0.0216,-0.0426 -0.048,-0.0263 -0.0264,0.0163 -0.048,0.006 -0.048,-0.024 0,-0.0295 -0.0216,-0.0403 -0.048,-0.024 -0.0264,0.0163 -0.048,0.007 -0.048,-0.0212 0,-0.028 -0.0324,-0.0509 -0.072,-0.0509 -0.0396,0 -0.072,-0.0229 -0.072,-0.0509 0,-0.028 -0.0216,-0.0375 -0.048,-0.0212 -0.0264,0.0163 -0.048,0.007 -0.048,-0.0212 0,-0.028 -0.0324,-0.0509 -0.072,-0.0509 -0.0396,0 -0.072,-0.0229 -0.072,-0.0509 0,-0.028 -0.0193,-0.0389 -0.043,-0.0243 -0.0237,0.0146 -0.0559,-0.007 -0.0717,-0.0482 -0.0158,-0.0411 -0.0505,-0.0614 -0.0771,-0.0449 -0.0266,0.0164 -0.0484,0.006 -0.0484,-0.0238 0,-0.0295 -0.0216,-0.0403 -0.048,-0.024 -0.0264,0.0163 -0.048,0.008 -0.048,-0.0191 0,-0.0269 -0.0918,-0.10065 -0.20412,-0.16398 -0.64451,-0.36355 -1.25279,-0.72149 -1.4768,-0.86902 -0.14073,-0.0927 -0.27395,-0.15733 -0.29604,-0.14368 -0.0221,0.0137 -0.0402,0.002 -0.0402,-0.026 0,-0.028 -0.0324,-0.0509 -0.072,-0.0509 -0.0396,0 -0.072,-0.0229 -0.072,-0.0509 0,-0.028 -0.0216,-0.0375 -0.048,-0.0212 -0.0264,0.0163 -0.048,0.007 -0.048,-0.0212 0,-0.028 -0.0324,-0.0509 -0.072,-0.0509 -0.0396,0 -0.072,-0.0229 -0.072,-0.0509 0,-0.028 -0.0216,-0.0375 -0.048,-0.0212 -0.0264,0.0163 -0.048,0.006 -0.048,-0.024 0,-0.0295 -0.0216,-0.0403 -0.048,-0.024 -0.0264,0.0163 -0.048,0.007 -0.048,-0.0212 0,-0.028 -0.0324,-0.0509 -0.072,-0.0509 -0.0396,0 -0.072,-0.0229 -0.072,-0.0509 0,-0.028 -0.0216,-0.0375 -0.048,-0.0212 -0.0264,0.0163 -0.048,0.006 -0.048,-0.024 0,-0.0295 -0.0216,-0.0403 -0.048,-0.024 -0.0264,0.0163 -0.048,0.006 -0.048,-0.024 0,-0.0295 -0.0193,-0.0417 -0.043,-0.0271 -0.0237,0.0146 -0.0559,-0.007 -0.0717,-0.0482 -0.0158,-0.0412 -0.0505,-0.0614 -0.0771,-0.0449 -0.0266,0.0164 -0.0484,0.006 -0.0484,-0.0238 0,-0.0295 -0.0216,-0.0403 -0.048,-0.024 -0.0264,0.0163 -0.048,0.006 -0.048,-0.024 0,-0.0295 -0.0216,-0.0403 -0.048,-0.024 -0.0264,0.0163 -0.048,0.007 -0.048,-0.0212 0,-0.028 -0.0225,-0.0509 -0.0501,-0.0509 -0.0275,0 -0.0762,-0.0225 -0.10806,-0.05 -0.0319,-0.0275 -0.393,-0.23482 -0.80243,-0.4608 -0.40943,-0.22597 -0.87896,-0.49526 -1.04341,-0.59842 -0.16445,-0.10316 -0.33194,-0.18757 -0.37221,-0.18757 -0.0403,0 -0.0732,-0.0216 -0.0732,-0.048 0,-0.0264 -0.0324,-0.048 -0.072,-0.048 -0.0396,0 -0.072,-0.0229 -0.072,-0.0509 0,-0.028 -0.0216,-0.0375 -0.048,-0.0212 -0.0264,0.0163 -0.048,0.006 -0.048,-0.024 0,-0.0295 -0.0216,-0.0403 -0.048,-0.024 -0.0264,0.0163 -0.048,0.006 -0.048,-0.024 0,-0.0295 -0.0193,-0.0417 -0.043,-0.0271 -0.0237,0.0146 -0.0559,-0.007 -0.0717,-0.0482 -0.0158,-0.0411 -0.0505,-0.0614 -0.0771,-0.0449 -0.0266,0.0164 -0.0484,0.006 -0.0484,-0.0238 0,-0.0295 -0.0216,-0.0403 -0.048,-0.024 -0.0264,0.0163 -0.048,0.006 -0.048,-0.024 0,-0.0295 -0.0216,-0.0403 -0.048,-0.024 -0.0264,0.0163 -0.048,0.007 -0.048,-0.0212 0,-0.028 -0.0324,-0.0509 -0.0721,-0.0509 -0.0396,0 -0.072,-0.0229 -0.072,-0.0509 0,-0.028 -0.0216,-0.0375 -0.048,-0.0212 -0.0264,0.0163 -0.048,0.006 -0.048,-0.024 0,-0.0295 -0.0216,-0.0403 -0.048,-0.024 -0.0264,0.0163 -0.048,0.006 -0.048,-0.024 0,-0.0295 -0.0216,-0.0403 -0.048,-0.024 -0.0264,0.0163 -0.048,0.007 -0.048,-0.0212 0,-0.028 -0.0324,-0.0509 -0.072,-0.0509 -0.0396,0 -0.072,-0.0229 -0.072,-0.0509 0,-0.028 -0.0216,-0.0375 -0.048,-0.0212 -0.0264,0.0163 -0.048,0.006 -0.048,-0.024 0,-0.0295 -0.0194,-0.0417 -0.043,-0.0271 -0.0237,0.0146 -0.0559,-0.007 -0.0717,-0.0482 -0.0158,-0.0412 -0.0505,-0.0614 -0.0771,-0.0449 -0.0266,0.0164 -0.0484,0.006 -0.0484,-0.0238 0,-0.0295 -0.0216,-0.0403 -0.048,-0.024 -0.0264,0.0163 -0.048,0.006 -0.048,-0.024 0,-0.0295 -0.0193,-0.0417 -0.043,-0.0271 -0.0237,0.0146 -0.0554,-0.006 -0.0705,-0.0452 -0.0151,-0.0395 -0.0506,-0.0718 -0.0787,-0.0718 -0.0577,0 -1.05191,-0.56392 -1.41251,-0.80122 -0.12978,-0.0854 -0.25405,-0.14411 -0.27615,-0.13045 -0.0221,0.0137 -0.0402,0.002 -0.0402,-0.026 0,-0.028 -0.0324,-0.0509 -0.072,-0.0509 -0.0396,0 -0.072,-0.0229 -0.072,-0.0509 0,-0.028 -0.0216,-0.0375 -0.048,-0.0212 -0.0264,0.0163 -0.048,0.006 -0.048,-0.024 0,-0.0295 -0.0193,-0.0417 -0.043,-0.0271 -0.0237,0.0146 -0.0559,-0.007 -0.0717,-0.0482 -0.0158,-0.0411 -0.0505,-0.0614 -0.0771,-0.0449 -0.0266,0.0164 -0.0484,0.006 -0.0484,-0.0238 0,-0.0295 -0.0216,-0.0403 -0.048,-0.024 -0.0264,0.0163 -0.048,0.006 -0.048,-0.024 0,-0.0295 -0.0216,-0.0403 -0.048,-0.024 -0.0264,0.0163 -0.048,0.007 -0.048,-0.0212 0,-0.028 -0.0324,-0.0509 -0.072,-0.0509 -0.0396,0 -0.072,-0.0229 -0.072,-0.0509 0,-0.028 -0.0216,-0.0375 -0.048,-0.0212 -0.0264,0.0163 -0.048,0.006 -0.048,-0.024 0,-0.0295 -0.0193,-0.0417 -0.043,-0.0271 -0.0237,0.0146 -0.0559,-0.007 -0.0717,-0.0482 -0.0158,-0.0412 -0.0505,-0.0614 -0.0771,-0.0449 -0.0266,0.0164 -0.0484,0.006 -0.0484,-0.0238 0,-0.0295 -0.0216,-0.0403 -0.048,-0.024 -0.0264,0.0163 -0.048,0.007 -0.048,-0.0212 0,-0.028 -0.0306,-0.0509 -0.068,-0.0509 -0.0374,0 -0.0752,-0.0171 -0.084,-0.0379 -0.0167,-0.0396 -0.50216,-0.3463 -0.54814,-0.3463 -0.0234,0 -1.0246,-0.57639 -1.3044,-0.75092 -0.0592,-0.0369 -0.124,-0.0683 -0.14409,-0.0697 -0.0201,-0.001 -0.0541,-0.034 -0.0755,-0.0723 -0.0214,-0.0383 -0.0593,-0.0571 -0.0841,-0.0418 -0.0248,0.0153 -0.0451,0.004 -0.0451,-0.0259 0,-0.0295 -0.0216,-0.0403 -0.048,-0.024 -0.0264,0.0163 -0.048,0.007 -0.048,-0.0212 0,-0.028 -0.0324,-0.0509 -0.072,-0.0509 -0.0396,0 -0.072,-0.0229 -0.072,-0.0509 0,-0.028 -0.0216,-0.0375 -0.048,-0.0212 -0.0264,0.0163 -0.048,0.007 -0.048,-0.0212 0,-0.028 -0.0324,-0.0509 -0.072,-0.0509 -0.0396,0 -0.072,-0.0229 -0.072,-0.0509 0,-0.028 -0.0216,-0.0375 -0.048,-0.0212 -0.0264,0.0163 -0.048,0.007 -0.048,-0.0212 0,-0.028 -0.0324,-0.0509 -0.072,-0.0509 -0.0396,0 -0.072,-0.0229 -0.072,-0.0509 0,-0.028 -0.0216,-0.0375 -0.048,-0.0212 -0.0264,0.0163 -0.048,0.006 -0.048,-0.024 0,-0.0295 -0.0193,-0.0417 -0.043,-0.0271 -0.0237,0.0146 -0.0559,-0.007 -0.0717,-0.0482 -0.0158,-0.0412 -0.0505,-0.0614 -0.0771,-0.0449 -0.0266,0.0164 -0.0484,0.006 -0.0484,-0.0238 0,-0.0295 -0.0193,-0.0417 -0.043,-0.0271 -0.0237,0.0146 -0.0559,-0.007 -0.0717,-0.0482 -0.0158,-0.0411 -0.0486,-0.0625 -0.073,-0.0474 -0.0243,0.0151 -0.0515,0.008 -0.0604,-0.0155 -0.0159,-0.0422 -0.72372,-0.48608 -0.77517,-0.48608 -0.039,0 -1.39795,-0.82285 -1.42617,-0.86352 -0.0359,-0.0517 -0.25877,-0.16697 -0.30017,-0.15525 -0.0198,0.006 -0.036,-0.0114 -0.036,-0.0378 0,-0.0264 -0.0324,-0.048 -0.072,-0.048 -0.0396,0 -0.072,-0.0229 -0.072,-0.0509 0,-0.028 -0.0193,-0.0389 -0.043,-0.0243 -0.0236,0.0146 -0.0559,-0.007 -0.0717,-0.0482 -0.0158,-0.0411 -0.0505,-0.0614 -0.0771,-0.0449 -0.0266,0.0164 -0.0484,0.006 -0.0484,-0.0238 0,-0.0295 -0.0193,-0.0417 -0.043,-0.0271 -0.0237,0.0146 -0.0559,-0.007 -0.0717,-0.0482 -0.0158,-0.0411 -0.0505,-0.0614 -0.0771,-0.0449 -0.0266,0.0164 -0.0484,0.006 -0.0484,-0.0238 0,-0.0295 -0.0193,-0.0417 -0.043,-0.0271 -0.0237,0.0146 -0.0559,-0.007 -0.0717,-0.0482 -0.0158,-0.0411 -0.0482,-0.0628 -0.072,-0.048 -0.0238,0.0147 -0.0562,-0.007 -0.072,-0.048 -0.0158,-0.0411 -0.0505,-0.0614 -0.0771,-0.0449 -0.0266,0.0164 -0.0484,0.006 -0.0484,-0.0238 0,-0.0295 -0.0193,-0.0417 -0.043,-0.0271 -0.0237,0.0146 -0.0559,-0.007 -0.0717,-0.0482 -0.0158,-0.0411 -0.0482,-0.0628 -0.072,-0.048 -0.0238,0.0147 -0.0562,-0.007 -0.072,-0.048 -0.0158,-0.0412 -0.0505,-0.0614 -0.0771,-0.0449 -0.0266,0.0164 -0.0484,0.006 -0.0484,-0.0238 0,-0.0295 -0.0216,-0.0403 -0.048,-0.024 -0.0264,0.0163 -0.048,0.007 -0.048,-0.02 0,-0.0273 -0.0702,-0.0855 -0.15609,-0.1294 -0.30254,-0.15462 -1.51159,-0.96801 -1.85076,-1.24509 -0.28635,-0.23394 -0.33362,-0.29229 -0.28487,-0.35162 0.15808,-0.19239 1.84673,-1.35453 2.796,-1.92422 0.70852,-0.42521 2.78392,-1.73928 2.8089,-1.7785 0.0333,-0.0522 1.66162,-1.05367 1.79696,-1.10512 0.0589,-0.0224 0.5271,-0.29887 1.04047,-0.61441 0.51336,-0.31553 1.15636,-0.70959 1.42887,-0.87568 0.27251,-0.16609 0.52645,-0.33296 0.56432,-0.37082 0.0379,-0.0379 0.0688,-0.055 0.0688,-0.038 0,0.017 0.0288,0.002 0.064,-0.0332 0.10075,-0.10074 1.81739,-1.12087 1.86363,-1.10747 0.0228,0.007 0.0414,-0.01 0.0414,-0.036 0,-0.0264 0.0234,-0.048 0.0519,-0.048 0.0626,0 2.40782,-1.39624 2.45367,-1.46079 0.0177,-0.0249 0.0629,-0.0498 0.10054,-0.0553 0.0743,-0.0109 0.47662,-0.25318 0.51565,-0.3105 0.0297,-0.0436 1.32333,-0.80765 1.48884,-0.87936 0.066,-0.0286 0.68199,-0.37418 1.36878,-0.76792 0.68679,-0.39374 1.41079,-0.80363 1.60891,-0.91086 0.19811,-0.10724 0.36762,-0.21338 0.3767,-0.23588 0.0193,-0.0478 0.48779,-0.292 0.48779,-0.25422 0,0.014 0.13147,-0.0409 0.29215,-0.12197 0.51277,-0.25884 0.44676,-0.26368 1.13024,0.0829 0.34032,0.17258 0.85373,0.4434 1.14092,0.60182 0.2872,0.15841 0.54654,0.29204 0.57633,0.29694 0.0298,0.005 0.14061,0.0647 0.24627,0.13298 0.10566,0.0682 0.82967,0.48008 1.60891,0.91521 1.80325,1.00693 1.61728,0.90164 2.89496,1.63913 0.60166,0.34728 1.15277,0.66168 1.22469,0.69866 0.0719,0.037 0.44413,0.25071 0.82715,0.47497 0.38302,0.22426 0.79365,0.46234 0.91252,0.52907 0.3143,0.17646 3.1116,1.78902 4.36915,2.5187 0.59361,0.34443 1.16633,0.67497 1.27272,0.73453 0.10638,0.0596 0.51761,0.29714 0.91383,0.52796 0.39623,0.23081 0.80686,0.46654 0.91252,0.52385 0.10566,0.0573 0.4233,0.23805 0.70587,0.40166 0.28257,0.1636 0.52379,0.29747 0.53605,0.29747 0.0122,0 0.26734,0.14731 0.56685,0.32736 0.29951,0.18006 0.94272,0.55287 1.42937,0.82847 1.07662,0.60974 1.44461,0.92128 1.44433,1.22279 -5.3e-4,0.6218 -0.91207,1.29831 -5.04267,3.7427 -3.30176,1.95391 -3.67714,2.17484 -3.80644,2.24037 -0.0728,0.0369 -0.72116,0.41611 -1.44082,0.8427 -0.71965,0.42659 -1.38409,0.81847 -1.47655,0.87083 -0.0925,0.0524 -0.56792,0.33182 -1.05659,0.62102 -0.48868,0.2892 -0.9467,0.5565 -1.01782,0.594 -0.0711,0.0375 -0.5466,0.31523 -1.0566,0.61718 -0.51001,0.30195 -1.17582,0.69312 -1.4796,0.86926 -0.30377,0.17615 -1.36277,0.79106 -2.35333,1.36647 -1.98591,1.15362 -2.4849,1.41837 -2.88902,1.53284 -0.14935,0.0423 -0.27902,0.074 -0.28816,0.0704 -0.009,-0.004 -0.0652,-0.0159 -0.12468,-0.0274 z"
         id="path364" /><path
         style="opacity:1;fill:#bc89fa;fill-opacity:1;stroke:none;stroke-width:0.333722;stroke-dasharray:none;stroke-opacity:1"
         d="m 82.510985,140.64526 c -0.167526,-0.0833 -0.321093,-0.15135 -0.341254,-0.15135 -0.02016,0 -0.03666,-0.0162 -0.03666,-0.036 0,-0.0198 -0.01529,-0.0265 -0.03396,-0.015 -0.01868,0.0115 -0.03396,0.004 -0.03396,-0.017 0,-0.0209 -0.01529,-0.0285 -0.03396,-0.017 -0.01868,0.0115 -0.03396,0.004 -0.03396,-0.017 0,-0.0209 -0.01529,-0.0285 -0.03396,-0.017 -0.01868,0.0115 -0.03396,0.004 -0.03396,-0.017 0,-0.0209 -0.01527,-0.0285 -0.03396,-0.017 -0.01868,0.0115 -0.03396,0.005 -0.03396,-0.015 0,-0.0198 -0.01336,-0.036 -0.02971,-0.036 -0.03536,0 -1.800875,-0.95738 -2.090819,-1.13378 -0.110969,-0.0675 -0.221766,-0.12275 -0.246213,-0.12275 -0.02445,0 -0.04445,-0.0162 -0.04445,-0.036 0,-0.0198 -0.01529,-0.0265 -0.03396,-0.015 -0.01868,0.0115 -0.03396,0.004 -0.03396,-0.017 0,-0.0209 -0.01529,-0.0285 -0.03396,-0.017 -0.01868,0.0115 -0.03396,0.004 -0.03396,-0.017 0,-0.0209 -0.01529,-0.0285 -0.03396,-0.017 -0.01868,0.0115 -0.03396,0.005 -0.03396,-0.015 0,-0.0198 -0.02291,-0.036 -0.05094,-0.036 -0.02802,0 -0.05094,-0.0162 -0.05094,-0.036 0,-0.0198 -0.01529,-0.0265 -0.03396,-0.015 -0.01868,0.0115 -0.03396,0.004 -0.03396,-0.017 0,-0.0209 -0.01529,-0.0285 -0.03396,-0.017 -0.01868,0.0115 -0.03396,0.004 -0.03396,-0.017 0,-0.0209 -0.01529,-0.0285 -0.03396,-0.017 -0.01868,0.0115 -0.03396,0.004 -0.03396,-0.017 0,-0.0209 -0.01368,-0.0295 -0.0304,-0.0192 -0.01672,0.0103 -0.03954,-0.005 -0.0507,-0.0341 -0.01117,-0.0291 -0.03569,-0.0434 -0.0545,-0.0318 -0.01881,0.0116 -0.0342,0.004 -0.0342,-0.0168 0,-0.0209 -0.01529,-0.0285 -0.03396,-0.017 -0.01868,0.0115 -0.03396,0.004 -0.03396,-0.017 0,-0.0209 -0.01529,-0.0285 -0.03396,-0.017 -0.01868,0.0115 -0.03396,0.005 -0.03396,-0.015 0,-0.0198 -0.02291,-0.036 -0.05094,-0.036 -0.02802,0 -0.05094,-0.0162 -0.05094,-0.036 0,-0.0198 -0.01529,-0.0265 -0.03396,-0.015 -0.01868,0.0115 -0.03396,0.004 -0.03396,-0.017 0,-0.0209 -0.01527,-0.0285 -0.03396,-0.017 -0.01868,0.0115 -0.03396,0.004 -0.03396,-0.017 0,-0.0209 -0.01529,-0.0285 -0.03396,-0.017 -0.01868,0.0115 -0.03396,0.004 -0.03396,-0.017 0,-0.0209 -0.01368,-0.0295 -0.0304,-0.0192 -0.01672,0.0103 -0.03954,-0.005 -0.0507,-0.0341 -0.01117,-0.0291 -0.03569,-0.0434 -0.0545,-0.0318 -0.01881,0.0116 -0.0342,0.004 -0.0342,-0.0168 0,-0.0209 -0.01529,-0.0285 -0.03396,-0.017 -0.01868,0.0115 -0.03396,0.004 -0.03396,-0.017 0,-0.0209 -0.01529,-0.0285 -0.03396,-0.017 -0.01868,0.0115 -0.03396,0.004 -0.03396,-0.017 0,-0.0209 -0.01368,-0.0295 -0.0304,-0.0192 -0.01672,0.0103 -0.03954,-0.005 -0.0507,-0.0341 -0.01117,-0.0291 -0.03569,-0.0434 -0.0545,-0.0318 -0.01881,0.0116 -0.0342,0.004 -0.0342,-0.0168 0,-0.0209 -0.01529,-0.0285 -0.03396,-0.017 -0.01868,0.0115 -0.03396,0.004 -0.03396,-0.017 0,-0.0209 -0.01529,-0.0285 -0.03396,-0.017 -0.01868,0.0115 -0.03396,0.004 -0.03396,-0.017 0,-0.0209 -0.01529,-0.0285 -0.03396,-0.017 -0.01868,0.0115 -0.03396,0.004 -0.03396,-0.016 0,-0.0204 -0.02674,-0.0465 -0.05943,-0.058 -0.09478,-0.0334 -1.651061,-0.90389 -1.698374,-0.94992 -0.02355,-0.0229 -0.09613,-0.0609 -0.161311,-0.0845 -0.06518,-0.0236 -0.118504,-0.056 -0.118504,-0.072 0,-0.016 -0.01529,-0.0197 -0.03396,-0.008 -0.01868,0.0115 -0.03396,0.004 -0.03396,-0.017 0,-0.0209 -0.01529,-0.0285 -0.03396,-0.017 -0.01868,0.0115 -0.03396,0.005 -0.03396,-0.015 0,-0.0198 -0.02291,-0.036 -0.05094,-0.036 -0.02802,0 -0.05094,-0.0162 -0.05094,-0.036 0,-0.0198 -0.01529,-0.0265 -0.03396,-0.015 -0.01868,0.0115 -0.03396,0.004 -0.03396,-0.017 0,-0.0209 -0.01529,-0.0285 -0.03396,-0.017 -0.01868,0.0115 -0.03396,0.004 -0.03396,-0.017 0,-0.0209 -0.01368,-0.0295 -0.0304,-0.0192 -0.01672,0.0103 -0.03954,-0.005 -0.0507,-0.0341 -0.01117,-0.0291 -0.03569,-0.0434 -0.0545,-0.0318 -0.01881,0.0116 -0.0342,0.004 -0.0342,-0.0168 0,-0.0209 -0.01529,-0.0285 -0.03396,-0.017 -0.01868,0.0115 -0.03396,0.004 -0.03396,-0.017 0,-0.0209 -0.01529,-0.0285 -0.03396,-0.017 -0.01868,0.0115 -0.03396,0.005 -0.03396,-0.015 0,-0.0198 -0.02291,-0.036 -0.05094,-0.036 -0.02802,0 -0.05094,-0.0162 -0.05094,-0.036 0,-0.0198 -0.01529,-0.0265 -0.03396,-0.015 -0.01868,0.0115 -0.03396,0.004 -0.03396,-0.017 0,-0.0209 -0.01529,-0.0285 -0.03396,-0.017 -0.01868,0.0115 -0.03396,0.004 -0.03396,-0.017 0,-0.0209 -0.01368,-0.0295 -0.0304,-0.0192 -0.01672,0.0103 -0.03954,-0.005 -0.0507,-0.0341 -0.01117,-0.0291 -0.03569,-0.0434 -0.0545,-0.0318 -0.01881,0.0116 -0.0342,0.004 -0.0342,-0.0168 0,-0.0209 -0.01529,-0.0285 -0.03396,-0.017 -0.01868,0.0115 -0.03396,0.004 -0.03396,-0.017 0,-0.0209 -0.01529,-0.0285 -0.03396,-0.017 -0.01868,0.0115 -0.03396,0.004 -0.03396,-0.017 0,-0.0209 -0.01368,-0.0295 -0.0304,-0.0192 -0.01672,0.0104 -0.03954,-0.005 -0.0507,-0.0341 -0.01117,-0.0291 -0.03569,-0.0434 -0.0545,-0.0318 -0.01881,0.0116 -0.0342,0.004 -0.0342,-0.0168 0,-0.0209 -0.01529,-0.0285 -0.03396,-0.017 -0.01868,0.0115 -0.03396,0.004 -0.03396,-0.017 0,-0.0209 -0.01529,-0.0285 -0.03396,-0.017 -0.01868,0.0115 -0.03396,0.005 -0.03396,-0.0145 0,-0.0195 -0.09552,-0.0837 -0.212254,-0.14253 -0.335402,-0.16918 -1.362197,-0.75145 -1.412092,-0.80077 -0.02484,-0.0246 -0.05924,-0.036 -0.07641,-0.0254 -0.01717,0.0106 -0.03122,0.002 -0.03122,-0.0187 0,-0.0209 -0.01529,-0.0285 -0.03396,-0.017 -0.01868,0.0115 -0.03396,0.005 -0.03396,-0.015 0,-0.0198 -0.02291,-0.036 -0.05094,-0.036 -0.02802,0 -0.05094,-0.0162 -0.05094,-0.036 0,-0.0198 -0.01529,-0.0265 -0.03396,-0.015 -0.01868,0.0115 -0.03396,0.004 -0.03396,-0.017 0,-0.0209 -0.01529,-0.0285 -0.03396,-0.017 -0.01868,0.0115 -0.03396,0.005 -0.03396,-0.015 0,-0.0198 -0.02291,-0.036 -0.05094,-0.036 -0.02802,0 -0.05094,-0.0162 -0.05094,-0.036 0,-0.0198 -0.01529,-0.0265 -0.03396,-0.015 -0.01868,0.0115 -0.03396,0.004 -0.03396,-0.017 0,-0.0209 -0.01529,-0.0285 -0.03396,-0.017 -0.01868,0.0115 -0.03396,0.005 -0.03396,-0.015 0,-0.0198 -0.02291,-0.036 -0.05094,-0.036 -0.02802,0 -0.05094,-0.0162 -0.05094,-0.036 0,-0.0198 -0.01529,-0.0265 -0.03396,-0.015 -0.01868,0.0115 -0.03396,0.004 -0.03396,-0.017 0,-0.0209 -0.01529,-0.0285 -0.03396,-0.017 -0.01868,0.0115 -0.03396,0.004 -0.03396,-0.017 0,-0.0209 -0.01368,-0.0295 -0.0304,-0.0192 -0.01672,0.0103 -0.03954,-0.005 -0.0507,-0.0341 -0.01117,-0.0291 -0.03569,-0.0434 -0.0545,-0.0318 -0.01881,0.0116 -0.0342,0.004 -0.0342,-0.0168 0,-0.0209 -0.01529,-0.0285 -0.03396,-0.017 -0.01868,0.0115 -0.03396,0.004 -0.03396,-0.017 0,-0.0209 -0.01529,-0.0285 -0.03396,-0.017 -0.01868,0.0115 -0.03396,0.005 -0.03396,-0.015 0,-0.0198 -0.02291,-0.036 -0.05094,-0.036 -0.02802,0 -0.05094,-0.0162 -0.05094,-0.036 0,-0.0198 -0.01529,-0.0265 -0.03396,-0.015 -0.01868,0.0115 -0.03396,0.004 -0.03396,-0.017 0,-0.0209 -0.01529,-0.0285 -0.03396,-0.017 -0.01868,0.0115 -0.03396,0.005 -0.03396,-0.015 0,-0.0198 -0.02291,-0.036 -0.05094,-0.036 -0.02802,0 -0.05094,-0.0162 -0.05094,-0.036 0,-0.0198 -0.01529,-0.0265 -0.03396,-0.015 -0.01868,0.0115 -0.03396,0.004 -0.03396,-0.017 0,-0.0209 -0.01529,-0.0285 -0.03396,-0.017 -0.01868,0.0115 -0.03396,0.004 -0.03396,-0.017 0,-0.0209 -0.01368,-0.0295 -0.0304,-0.0192 -0.01672,0.0103 -0.03954,-0.005 -0.0507,-0.0341 -0.01117,-0.0291 -0.03569,-0.0434 -0.0545,-0.0318 -0.01881,0.0116 -0.0342,0.004 -0.0342,-0.0168 0,-0.0209 -0.01529,-0.0285 -0.03396,-0.017 -0.01868,0.0115 -0.03396,0.004 -0.03396,-0.017 0,-0.0209 -0.01529,-0.0285 -0.03396,-0.017 -0.01868,0.0115 -0.03396,0.005 -0.03396,-0.015 0,-0.0198 -0.02291,-0.036 -0.05094,-0.036 -0.02802,0 -0.05094,-0.0162 -0.05094,-0.036 0,-0.0198 -0.01529,-0.0265 -0.03396,-0.015 -0.01868,0.0115 -0.03396,0.004 -0.03396,-0.017 0,-0.0209 -0.01529,-0.0285 -0.03396,-0.017 -0.01868,0.0115 -0.03396,0.005 -0.03396,-0.015 0,-0.0198 -0.02291,-0.036 -0.05094,-0.036 -0.02802,0 -0.05094,-0.0122 -0.05094,-0.0272 0,-0.0149 -0.07184,-0.0621 -0.159644,-0.10475 -0.196961,-0.0957 -1.27195,-0.70855 -1.571972,-0.89619 -0.121211,-0.0758 -0.23899,-0.13784 -0.261731,-0.13784 -0.02275,0 -0.04954,-0.0213 -0.05955,-0.0474 -0.01,-0.0261 -0.03359,-0.0379 -0.0524,-0.0263 -0.01881,0.0116 -0.0342,0.004 -0.0342,-0.0168 0,-0.0209 -0.01529,-0.0285 -0.03396,-0.017 -0.01868,0.0115 -0.03396,0.004 -0.03396,-0.017 0,-0.0209 -0.01368,-0.0295 -0.0304,-0.0192 -0.01672,0.0104 -0.03954,-0.005 -0.0507,-0.0341 -0.01117,-0.0291 -0.03569,-0.0434 -0.0545,-0.0318 -0.01881,0.0116 -0.0342,0.004 -0.0342,-0.0168 0,-0.0209 -0.01529,-0.0285 -0.03396,-0.017 -0.01868,0.0115 -0.03396,0.004 -0.03396,-0.017 0,-0.0209 -0.01529,-0.0285 -0.03396,-0.017 -0.01868,0.0115 -0.03396,0.005 -0.03396,-0.015 0,-0.0198 -0.02291,-0.036 -0.05094,-0.036 -0.02802,0 -0.05094,-0.0162 -0.05094,-0.036 0,-0.0198 -0.01529,-0.0265 -0.03396,-0.015 -0.01868,0.0115 -0.03396,0.004 -0.03396,-0.017 0,-0.0209 -0.01529,-0.0285 -0.03396,-0.017 -0.01868,0.0115 -0.03396,0.005 -0.03396,-0.015 0,-0.0198 -0.02291,-0.036 -0.05094,-0.036 -0.02802,0 -0.05094,-0.0162 -0.05094,-0.036 0,-0.0198 -0.01529,-0.0265 -0.03396,-0.015 -0.01868,0.0115 -0.03396,0.004 -0.03396,-0.017 0,-0.0209 -0.01529,-0.0285 -0.03396,-0.017 -0.01868,0.0115 -0.03396,0.005 -0.03396,-0.015 0,-0.0198 -0.02291,-0.036 -0.05094,-0.036 -0.02802,0 -0.05094,-0.0162 -0.05094,-0.036 0,-0.0198 -0.01529,-0.0265 -0.03396,-0.015 -0.01868,0.0115 -0.03396,0.004 -0.03396,-0.017 0,-0.0209 -0.01527,-0.0285 -0.03396,-0.017 -0.01868,0.0115 -0.03396,0.005 -0.03396,-0.015 0,-0.0198 -0.02291,-0.036 -0.05094,-0.036 -0.02802,0 -0.05094,-0.0162 -0.05094,-0.036 0,-0.0198 -0.01527,-0.0265 -0.03396,-0.015 -0.01868,0.0115 -0.03396,0.004 -0.03396,-0.017 0,-0.0209 -0.01529,-0.0285 -0.03396,-0.017 -0.01868,0.0115 -0.03396,0.005 -0.03396,-0.015 0,-0.0198 -0.02291,-0.036 -0.05094,-0.036 -0.02802,0 -0.05094,-0.0162 -0.05094,-0.036 0,-0.0198 -0.01529,-0.0265 -0.03396,-0.015 -0.01868,0.0115 -0.03396,0.004 -0.03396,-0.017 0,-0.0209 -0.01529,-0.0285 -0.03396,-0.017 -0.01868,0.0115 -0.03396,0.005 -0.03396,-0.015 0,-0.0198 -0.02291,-0.036 -0.05094,-0.036 -0.02802,0 -0.05094,-0.0178 -0.05094,-0.0396 0,-0.0218 -0.0093,-0.0303 -0.02061,-0.019 -0.01132,0.0113 -0.03807,0.006 -0.05943,-0.0128 -0.0412,-0.0355 -1.412042,-0.82977 -1.541312,-0.89307 -0.04188,-0.0205 -0.07626,-0.0497 -0.07641,-0.0648 -1.45e-4,-0.0151 -0.01556,-0.018 -0.03423,-0.006 -0.01868,0.0115 -0.03396,0.004 -0.03396,-0.017 0,-0.0209 -0.01368,-0.0295 -0.0304,-0.0192 -0.01672,0.0103 -0.03953,-0.005 -0.0507,-0.0341 -0.01117,-0.0291 -0.03569,-0.0434 -0.0545,-0.0318 -0.01881,0.0116 -0.0342,0.004 -0.0342,-0.0168 0,-0.0209 -0.01529,-0.0285 -0.03396,-0.017 -0.01868,0.0115 -0.03396,0.005 -0.03396,-0.015 0,-0.0198 -0.02291,-0.036 -0.05094,-0.036 -0.02802,0 -0.05094,-0.0162 -0.05094,-0.036 0,-0.0198 -0.01529,-0.0265 -0.03396,-0.015 -0.01868,0.0115 -0.03396,0.004 -0.03396,-0.017 0,-0.0209 -0.01368,-0.0295 -0.0304,-0.0192 -0.01672,0.0103 -0.03954,-0.005 -0.0507,-0.0341 -0.01117,-0.0291 -0.03569,-0.0434 -0.0545,-0.0318 -0.01881,0.0116 -0.0342,0.004 -0.0342,-0.0168 0,-0.0209 -0.01529,-0.0285 -0.03396,-0.017 -0.01868,0.0115 -0.03396,0.005 -0.03396,-0.015 0,-0.0198 -0.02291,-0.036 -0.05094,-0.036 -0.02802,0 -0.05094,-0.0162 -0.05094,-0.036 0,-0.0198 -0.01529,-0.0265 -0.03396,-0.015 -0.01868,0.0115 -0.03396,0.004 -0.03396,-0.017 0,-0.0209 -0.01368,-0.0295 -0.0304,-0.0192 -0.01672,0.0103 -0.03954,-0.005 -0.0507,-0.0341 -0.01117,-0.0291 -0.03569,-0.0434 -0.0545,-0.0318 -0.01881,0.0116 -0.0342,0.004 -0.0342,-0.0168 0,-0.0209 -0.01529,-0.0285 -0.03396,-0.017 -0.01868,0.0115 -0.03396,0.005 -0.03396,-0.015 0,-0.0198 -0.02291,-0.036 -0.05094,-0.036 -0.02802,0 -0.05094,-0.0162 -0.05094,-0.036 0,-0.0198 -0.01529,-0.0265 -0.03396,-0.015 -0.01868,0.0115 -0.03396,0.004 -0.03396,-0.017 0,-0.0209 -0.01368,-0.0295 -0.0304,-0.0192 -0.01672,0.0103 -0.03954,-0.005 -0.0507,-0.0341 -0.01116,-0.0291 -0.03569,-0.0434 -0.0545,-0.0318 -0.01881,0.0116 -0.0342,0.004 -0.0342,-0.0168 0,-0.0209 -0.01529,-0.0285 -0.03396,-0.017 -0.01868,0.0115 -0.03396,0.006 -0.03396,-0.012 0,-0.0181 -0.110797,-0.0929 -0.246213,-0.16603 -0.353571,-0.19101 -1.654181,-0.9886 -1.772579,-1.08702 -0.297976,-0.24769 -0.219509,-0.60359 0.223602,-1.01415 0.194625,-0.18034 0.649108,-0.52744 0.731732,-0.55885 0.04324,-0.0164 0.07861,-0.0464 0.07861,-0.0667 0,-0.0202 0.01434,-0.0279 0.03187,-0.0171 0.01754,0.0108 0.04427,-8e-4 0.05943,-0.0257 0.02728,-0.0449 0.977093,-0.67096 1.402953,-0.92469 0.121407,-0.0723 0.472898,-0.28679 0.781087,-0.47655 0.753033,-0.46368 1.647711,-1.00783 1.736735,-1.05629 0.03979,-0.0217 0.08174,-0.0533 0.09322,-0.0704 0.02294,-0.0341 1.87211,-1.1484 1.915808,-1.15447 0.03134,-0.004 2.443448,-1.43751 2.468978,-1.46695 0.0093,-0.0108 0.09058,-0.0578 0.180533,-0.10448 0.08996,-0.0467 0.194448,-0.11349 0.232209,-0.14843 0.07217,-0.0668 1.861622,-1.14069 2.066362,-1.24009 0.06537,-0.0317 0.780475,-0.45439 1.589116,-0.93922 0.808641,-0.48483 1.516563,-0.90535 1.573162,-0.93448 0.0566,-0.0291 0.113242,-0.0688 0.125879,-0.0881 0.02751,-0.0421 1.281554,-0.78821 1.619112,-0.96331 0.130746,-0.0678 0.58157,-0.32221 1.001829,-0.56531 1.108234,-0.64106 1.444421,-0.83165 1.654215,-0.93784 0.102692,-0.052 0.209999,-0.11778 0.238458,-0.14624 0.05995,-0.06 0.738436,-0.4044 1.161939,-0.58988 0.521509,-0.22841 0.707668,-0.27995 1.076423,-0.29803 0.420669,-0.0206 0.576617,0.0236 0.954167,0.27037 0.144951,0.0948 0.89776,0.54348 1.672904,0.99715 0.775145,0.45367 1.424636,0.83802 1.443316,0.85411 0.01868,0.0161 0.0603,0.0393 0.09249,0.0516 0.03219,0.0123 0.330192,0.18157 0.662226,0.37619 0.332034,0.19463 0.659863,0.38538 0.728506,0.42391 0.06865,0.0385 1.069629,0.61531 2.224403,1.28173 1.154776,0.66643 2.458725,1.41843 2.897661,1.67111 0.438938,0.25268 1.180123,0.68055 1.647076,0.95083 0.466955,0.27028 0.867378,0.49421 0.889831,0.49763 0.02244,0.003 0.0683,0.0297 0.10188,0.0585 0.03358,0.0287 0.412549,0.25529 0.842148,0.50348 0.429598,0.24818 1.193705,0.69456 1.698016,0.99196 0.504312,0.29739 0.939853,0.55415 0.96787,0.57059 2.821031,1.65485 4.452951,2.70552 4.801521,3.09135 0.18254,0.20205 0.15544,0.33614 -0.12077,0.59732 -0.22794,0.21556 -1.0393,0.79862 -1.41747,1.01862 -0.0671,0.039 -0.4658,0.2847 -0.88606,0.54594 -0.96714,0.6012 -3.928436,2.38539 -4.041278,2.43488 -0.04669,0.0205 -0.09254,0.0462 -0.101881,0.0572 -0.01537,0.018 -0.800833,0.48613 -3.514894,2.09482 -2.245844,1.33116 -5.081138,3.00389 -5.569495,3.28582 -2.620941,1.51306 -2.61856,1.5117 -3.922419,2.24084 -1.144513,0.64004 -2.034672,1.1087 -2.290693,1.20604 -0.06796,0.0258 -0.139108,0.004 -0.387821,-0.11971 z"
         id="path365" /><path
         style="opacity:1;fill:#b66af2;fill-opacity:1;stroke:none;stroke-width:0.471953;stroke-dasharray:none;stroke-opacity:1"
         d="m 108.38248,155.20289 c -1.5e-4,-0.0198 -0.0914,-0.0396 -0.20273,-0.0439 -0.11135,-0.004 -0.20952,-0.029 -0.21815,-0.0549 -0.009,-0.0259 -0.0579,-0.0361 -0.10945,-0.0226 -0.0516,0.0135 -0.0937,0.001 -0.0937,-0.0276 0,-0.0287 -0.0324,-0.0397 -0.072,-0.0245 -0.0396,0.0152 -0.072,0.002 -0.072,-0.0284 0,-0.0308 -0.0216,-0.0426 -0.048,-0.0263 -0.0264,0.0163 -0.048,0.006 -0.048,-0.024 0,-0.0295 -0.024,-0.0388 -0.0534,-0.0207 -0.0294,0.0182 -0.0672,0.0112 -0.0841,-0.0154 -0.0169,-0.0266 -0.22516,-0.12851 -0.4629,-0.22636 -0.37204,-0.15313 -0.65463,-0.29384 -1.65693,-0.82507 -0.0925,-0.049 -0.17534,-0.10543 -0.18421,-0.12541 -0.009,-0.02 -0.0359,-0.0241 -0.06,-0.009 -0.0242,0.0149 -0.0439,0.003 -0.0439,-0.0265 0,-0.0295 -0.0216,-0.0403 -0.048,-0.024 -0.0264,0.0163 -0.048,0.006 -0.048,-0.024 0,-0.0295 -0.0216,-0.0403 -0.048,-0.024 -0.0264,0.0163 -0.048,0.006 -0.048,-0.024 0,-0.0295 -0.0216,-0.0403 -0.048,-0.024 -0.0264,0.0163 -0.048,0.006 -0.048,-0.024 0,-0.0295 -0.0216,-0.0403 -0.048,-0.024 -0.0264,0.0163 -0.048,0.007 -0.048,-0.0212 0,-0.028 -0.0324,-0.0509 -0.072,-0.0509 -0.0396,0 -0.072,-0.0229 -0.072,-0.0509 0,-0.028 -0.0216,-0.0375 -0.048,-0.0212 -0.0264,0.0163 -0.048,0.006 -0.048,-0.024 0,-0.0295 -0.0216,-0.0403 -0.048,-0.024 -0.0264,0.0163 -0.048,0.006 -0.048,-0.024 0,-0.0295 -0.0193,-0.0417 -0.043,-0.0271 -0.0236,0.0146 -0.0559,-0.007 -0.0717,-0.0482 -0.0158,-0.0412 -0.0505,-0.0614 -0.0771,-0.0449 -0.0266,0.0164 -0.0484,0.006 -0.0484,-0.0238 0,-0.0295 -0.0216,-0.0403 -0.048,-0.024 -0.0264,0.0163 -0.048,0.006 -0.048,-0.024 0,-0.0295 -0.0216,-0.0403 -0.048,-0.024 -0.0264,0.0163 -0.048,0.006 -0.048,-0.024 0,-0.0295 -0.0193,-0.0417 -0.043,-0.0271 -0.0237,0.0146 -0.0559,-0.007 -0.0717,-0.0482 -0.0158,-0.0411 -0.0505,-0.0614 -0.0771,-0.0449 -0.0266,0.0164 -0.0484,0.006 -0.0484,-0.0238 0,-0.0295 -0.0216,-0.0403 -0.048,-0.024 -0.0264,0.0163 -0.048,0.009 -0.048,-0.0158 0,-0.025 -0.1783,-0.13821 -0.39622,-0.25152 -0.21792,-0.11331 -0.75283,-0.41054 -1.18867,-0.66051 -0.43585,-0.24996 -0.84091,-0.47844 -0.90014,-0.50773 -0.0592,-0.0293 -0.10785,-0.0707 -0.10806,-0.0921 -2.1e-4,-0.0214 -0.022,-0.0255 -0.0484,-0.009 -0.0264,0.0163 -0.048,0.006 -0.048,-0.024 0,-0.0295 -0.0216,-0.0403 -0.048,-0.024 -0.0264,0.0163 -0.048,0.007 -0.048,-0.0212 0,-0.028 -0.0324,-0.0509 -0.072,-0.0509 -0.0396,0 -0.072,-0.0229 -0.072,-0.0509 0,-0.028 -0.0216,-0.0375 -0.048,-0.0212 -0.0264,0.0163 -0.048,0.006 -0.048,-0.024 0,-0.0295 -0.0216,-0.0403 -0.048,-0.024 -0.0264,0.0163 -0.048,0.006 -0.048,-0.024 0,-0.0295 -0.0193,-0.0417 -0.043,-0.0271 -0.0237,0.0146 -0.0559,-0.007 -0.0717,-0.0482 -0.0158,-0.0411 -0.0505,-0.0614 -0.0771,-0.0449 -0.0266,0.0164 -0.0484,0.006 -0.0484,-0.0238 0,-0.0295 -0.0216,-0.0403 -0.048,-0.024 -0.0264,0.0163 -0.048,0.006 -0.048,-0.024 0,-0.0295 -0.0216,-0.0403 -0.04803,-0.024 -0.02641,0.0163 -0.04803,0.007 -0.04803,-0.0212 0,-0.028 -0.03242,-0.0509 -0.07204,-0.0509 -0.03962,0 -0.07204,-0.0166 -0.07204,-0.0369 0,-0.0203 -0.135075,-0.10996 -0.30017,-0.19921 -0.743709,-0.40206 -1.60679,-0.89253 -1.710608,-0.97211 -0.06254,-0.0479 -0.130513,-0.0768 -0.151056,-0.0641 -0.02053,0.0127 -0.05027,-0.0106 -0.06605,-0.0517 -0.0158,-0.0411 -0.05047,-0.0614 -0.07708,-0.0449 -0.0266,0.0164 -0.04837,0.006 -0.04837,-0.0238 0,-0.0295 -0.02162,-0.0403 -0.04803,-0.024 -0.02641,0.0163 -0.04803,0.006 -0.04803,-0.024 0,-0.0295 -0.01934,-0.0417 -0.043,-0.0271 -0.02365,0.0146 -0.05591,-0.007 -0.0717,-0.0482 -0.0158,-0.0411 -0.05047,-0.0614 -0.07708,-0.0449 -0.0266,0.0164 -0.04837,0.006 -0.04837,-0.0238 0,-0.0295 -0.02162,-0.0403 -0.04803,-0.024 -0.02641,0.0163 -0.04803,0.006 -0.04803,-0.024 0,-0.0295 -0.01934,-0.0417 -0.04299,-0.0271 -0.02365,0.0146 -0.05591,-0.007 -0.0717,-0.0482 -0.01579,-0.0411 -0.05047,-0.0614 -0.07708,-0.0449 -0.0266,0.0164 -0.04837,0.006 -0.04837,-0.0238 0,-0.0295 -0.02162,-0.0403 -0.04803,-0.024 -0.02641,0.0163 -0.04803,0.006 -0.04803,-0.024 0,-0.0295 -0.01934,-0.0417 -0.04299,-0.0271 -0.02365,0.0146 -0.05591,-0.007 -0.0717,-0.0482 -0.0158,-0.0411 -0.05047,-0.0614 -0.07708,-0.0449 -0.0266,0.0164 -0.04837,0.006 -0.04837,-0.0238 0,-0.0295 -0.02162,-0.0403 -0.04803,-0.024 -0.0264,0.0163 -0.04803,0.006 -0.04803,-0.024 0,-0.0295 -0.01934,-0.0417 -0.043,-0.0271 -0.02365,0.0146 -0.05591,-0.007 -0.0717,-0.0482 -0.0158,-0.0411 -0.05047,-0.0614 -0.07708,-0.0449 -0.0266,0.0164 -0.04837,0.003 -0.04837,-0.029 0,-0.0324 -0.0131,-0.0458 -0.02913,-0.0297 -0.01601,0.016 -0.06886,-0.007 -0.117417,-0.052 -0.04856,-0.0446 -0.19214,-0.13349 -0.319071,-0.19746 -0.343946,-0.17333 -1.427832,-0.7852 -1.455473,-0.82163 -0.0132,-0.0174 -0.164492,-0.10526 -0.336191,-0.19523 -0.171696,-0.09 -0.319423,-0.17992 -0.328284,-0.19989 -0.0089,-0.02 -0.03587,-0.0241 -0.06003,-0.009 -0.02416,0.0149 -0.04393,0.003 -0.04393,-0.0265 0,-0.0295 -0.02162,-0.0403 -0.04803,-0.024 -0.02641,0.0163 -0.04803,0.007 -0.04803,-0.0212 0,-0.028 -0.03242,-0.0509 -0.07204,-0.0509 -0.03962,0 -0.07204,-0.0229 -0.07204,-0.0509 0,-0.028 -0.02162,-0.0375 -0.04803,-0.0212 -0.0264,0.0163 -0.04803,0.006 -0.04803,-0.024 0,-0.0295 -0.02162,-0.0403 -0.04803,-0.024 -0.02641,0.0163 -0.04803,0.007 -0.04803,-0.0212 0,-0.028 -0.03242,-0.0509 -0.07204,-0.0509 -0.03962,0 -0.07204,-0.0229 -0.07204,-0.0509 0,-0.028 -0.02162,-0.0375 -0.04803,-0.0212 -0.02641,0.0163 -0.04803,0.006 -0.04803,-0.024 0,-0.0295 -0.01934,-0.0417 -0.043,-0.0271 -0.02365,0.0146 -0.05591,-0.007 -0.0717,-0.0482 -0.0158,-0.0411 -0.05047,-0.0614 -0.07708,-0.0449 -0.0266,0.0164 -0.04837,0.006 -0.04837,-0.0238 0,-0.0295 -0.02162,-0.0403 -0.04803,-0.024 -0.02641,0.0163 -0.04803,0.003 -0.04803,-0.0292 0,-0.0324 -0.01408,-0.0448 -0.03127,-0.0276 -0.0172,0.0172 -0.05502,7.9e-4 -0.08405,-0.0364 -0.02903,-0.0372 -0.279704,-0.19056 -0.557062,-0.34074 -0.277357,-0.15017 -0.704725,-0.39493 -0.949708,-0.5439 -0.244983,-0.14897 -0.504331,-0.30328 -0.576326,-0.3429 -0.072,-0.0396 -0.146781,-0.0936 -0.166188,-0.12007 -0.02352,-0.032 -0.03601,-0.032 -0.03748,0 -0.0013,0.0264 -0.02447,0.01 -0.05171,-0.037 -0.02724,-0.0468 -0.0698,-0.0725 -0.09459,-0.0572 -0.02479,0.0153 -0.04508,0.004 -0.04508,-0.0259 0,-0.0295 -0.02162,-0.0403 -0.04803,-0.024 -0.0264,0.0163 -0.04803,0.007 -0.04803,-0.0212 0,-0.028 -0.03242,-0.0509 -0.07204,-0.0509 -0.03962,0 -0.07204,-0.0229 -0.07204,-0.0509 0,-0.028 -0.01934,-0.0389 -0.043,-0.0243 -0.02365,0.0146 -0.05591,-0.007 -0.0717,-0.0482 -0.01579,-0.0411 -0.05047,-0.0614 -0.07707,-0.0449 -0.0266,0.0164 -0.04837,0.006 -0.04837,-0.0238 0,-0.0295 -0.01934,-0.0417 -0.043,-0.0271 -0.02365,0.0146 -0.05591,-0.007 -0.0717,-0.0482 -0.0158,-0.0411 -0.05047,-0.0614 -0.07708,-0.0449 -0.0266,0.0164 -0.04837,0.006 -0.04837,-0.0238 0,-0.0295 -0.01934,-0.0417 -0.043,-0.0271 -0.02365,0.0146 -0.05591,-0.007 -0.0717,-0.0482 -0.0158,-0.0411 -0.04821,-0.0628 -0.07204,-0.048 -0.02384,0.0147 -0.05625,-0.007 -0.07204,-0.048 -0.01579,-0.0411 -0.05047,-0.0614 -0.07707,-0.0449 -0.0266,0.0164 -0.04837,0.007 -0.04837,-0.021 0,-0.028 -0.03242,-0.0509 -0.07204,-0.0509 -0.03962,0 -0.07204,-0.0229 -0.07204,-0.0509 0,-0.028 -0.01934,-0.0389 -0.043,-0.0243 -0.02365,0.0146 -0.05359,-10e-4 -0.06655,-0.0348 -0.01296,-0.0338 -0.117877,-0.11012 -0.233161,-0.16968 -0.279387,-0.14433 -1.0111,-0.66866 -1.332677,-0.95496 -0.328277,-0.29227 -0.620591,-0.67588 -0.658157,-0.86371 -0.0563,-0.28149 0.20936,-0.58665 0.799029,-0.91781 0.146579,-0.0823 0.317381,-0.1938 0.37956,-0.24773 0.06218,-0.0539 0.132234,-0.0981 0.155673,-0.0981 0.02344,0 0.338916,-0.16943 0.701053,-0.37651 0.362138,-0.20708 0.723268,-0.40821 0.802513,-0.44696 0.298059,-0.14575 1.540878,-0.87585 1.636488,-0.96136 0.05479,-0.049 0.114223,-0.0745 0.132075,-0.0566 0.01786,0.0179 0.03246,0.006 0.03246,-0.0264 0,-0.0324 0.02178,-0.0454 0.04837,-0.029 0.0266,0.0164 0.06128,-0.004 0.07708,-0.0449 0.01579,-0.0412 0.04805,-0.0628 0.0717,-0.0482 0.02365,0.0146 0.043,0.008 0.043,-0.0146 0,-0.0227 0.07542,-0.0685 0.167592,-0.10181 0.09218,-0.0333 0.203274,-0.0963 0.246886,-0.1399 0.04361,-0.0436 0.108243,-0.0836 0.143626,-0.0887 0.03538,-0.005 0.09592,-0.041 0.13453,-0.0796 0.07369,-0.0737 1.849731,-1.11525 1.901693,-1.11525 0.01651,0 0.544983,-0.30257 1.174374,-0.67238 0.629394,-0.36981 1.23299,-0.72323 1.341327,-0.78538 0.422031,-0.24211 0.775866,-0.46158 0.830892,-0.51536 0.07097,-0.0694 1.506257,-0.90293 1.574273,-0.91428 0.04391,-0.007 0.553106,-0.3038 2.450445,-1.42673 0.31698,-0.1876 0.59794,-0.36509 0.62435,-0.39441 0.0585,-0.065 1.86691,-1.12676 1.91904,-1.12676 0.0312,0 1.01015,-0.56948 1.86592,-1.08545 0.12702,-0.0766 0.2961,-0.17295 0.37574,-0.21416 0.0796,-0.0412 0.15941,-0.0971 0.17728,-0.1243 0.0757,-0.11505 1.11437,-0.67719 1.39822,-0.75674 0.7424,-0.20803 1.40903,0.0826 5.52617,2.40916 0.54151,0.306 0.99177,0.57428 1.00057,0.59618 0.009,0.0219 0.038,0.0398 0.0648,0.0398 0.0268,0 0.46266,0.23503 0.96854,0.52229 0.50589,0.28726 2.58394,1.46831 4.61789,2.62456 2.03395,1.15625 3.8118,2.16518 3.95077,2.24208 0.13898,0.0769 0.59284,0.33484 1.00857,0.57322 0.41574,0.23838 0.7775,0.43794 0.80392,0.44346 0.0264,0.006 0.13447,0.0663 0.24013,0.13499 0.10566,0.0687 0.64597,0.38372 1.20068,0.70001 0.55472,0.31629 1.21365,0.69948 1.4643,0.85153 0.25065,0.15205 0.48471,0.28071 0.52013,0.28591 0.0354,0.005 0.0789,0.03 0.0966,0.0551 0.0177,0.0251 0.18301,0.14248 0.36737,0.26077 0.79485,0.51 1.23239,0.9531 1.15088,1.1655 -0.0437,0.1139 -1.48024,1.13599 -2.24176,1.59501 -0.0438,0.0264 -0.47525,0.29985 -0.95873,0.60763 -2.06797,1.31648 -9.3365,5.6879 -10.9634,6.59358 -0.13133,0.0731 -0.6176,0.35455 -1.08061,0.62543 -0.73563,0.43037 -3.72166,2.14809 -4.3238,2.48727 -0.11887,0.067 -0.48628,0.27579 -0.81646,0.46409 -0.33019,0.18829 -0.71921,0.37678 -0.86449,0.41886 -0.14528,0.0421 -0.3138,0.0957 -0.37447,0.11904 -0.13448,0.0518 -0.39386,0.0561 -0.39424,0.007 z"
         id="path366" /><path
         style="opacity:1;fill:#814ece;fill-opacity:1;stroke:none;stroke-width:0.667441;stroke-dasharray:none;stroke-opacity:1"
         d="m 105.81602,183.87526 c -0.68695,-0.3161 -2.43728,-1.20893 -3.00763,-1.53416 -0.23707,-0.13518 -0.45866,-0.24579 -0.49243,-0.24579 -0.0338,0 -0.0614,-0.0324 -0.0614,-0.0719 0,-0.0396 -0.0306,-0.053 -0.0679,-0.03 -0.0374,0.0231 -0.0679,0.008 -0.0679,-0.0339 0,-0.0418 -0.0306,-0.0571 -0.0679,-0.034 -0.0374,0.0231 -0.0679,0.0129 -0.0679,-0.0226 0,-0.0355 -0.0764,-0.0837 -0.1698,-0.10718 -0.0934,-0.0234 -0.16981,-0.0744 -0.16981,-0.11326 0,-0.0388 -0.0306,-0.0517 -0.0679,-0.0287 -0.0374,0.0231 -0.0679,0.008 -0.0679,-0.034 0,-0.0418 -0.0306,-0.057 -0.0679,-0.034 -0.0374,0.0231 -0.0679,0.008 -0.0679,-0.034 0,-0.0418 -0.0306,-0.057 -0.0679,-0.034 -0.0374,0.0231 -0.0679,0.01 -0.0679,-0.0299 0,-0.0396 -0.0459,-0.0719 -0.10188,-0.0719 -0.056,0 -0.10188,-0.0324 -0.10188,-0.0719 0,-0.0396 -0.0306,-0.053 -0.0679,-0.0299 -0.0374,0.0231 -0.0679,0.0151 -0.0679,-0.0178 0,-0.0329 -0.308,-0.22027 -0.68444,-0.41638 -0.376435,-0.19611 -0.836244,-0.44608 -1.021796,-0.55548 -0.185552,-0.10941 -0.366585,-0.19892 -0.402299,-0.19892 -0.03571,0 -0.06493,-0.0306 -0.06493,-0.0679 0,-0.0374 -0.04585,-0.0679 -0.101881,-0.0679 -0.05604,0 -0.10188,-0.0324 -0.10188,-0.0719 0,-0.0396 -0.03057,-0.053 -0.06792,-0.03 -0.03736,0.0231 -0.06792,0.008 -0.06792,-0.034 0,-0.0418 -0.03056,-0.0571 -0.06792,-0.034 -0.03736,0.0231 -0.06792,0.008 -0.06792,-0.034 0,-0.0418 -0.02736,-0.059 -0.0608,-0.0384 -0.03344,0.0207 -0.07907,-0.01 -0.101399,-0.0682 -0.02233,-0.0582 -0.07138,-0.0868 -0.109,-0.0635 -0.03762,0.0232 -0.0684,0.008 -0.0684,-0.0337 0,-0.0418 -0.03056,-0.0571 -0.06792,-0.034 -0.03735,0.0231 -0.06792,0.01 -0.06792,-0.03 0,-0.0396 -0.04585,-0.0719 -0.101883,-0.0719 -0.05603,0 -0.101881,-0.0324 -0.101881,-0.0719 0,-0.0396 -0.03056,-0.053 -0.06792,-0.03 -0.03735,0.0231 -0.06792,0.008 -0.06792,-0.034 0,-0.0418 -0.03057,-0.0571 -0.06792,-0.034 -0.03736,0.0231 -0.06792,0.008 -0.06792,-0.034 0,-0.0418 -0.02736,-0.059 -0.0608,-0.0384 -0.03344,0.0207 -0.07907,-0.01 -0.101401,-0.0682 -0.02233,-0.0582 -0.06877,-0.0884 -0.103196,-0.0671 -0.03443,0.0213 -0.07285,0.0122 -0.08538,-0.0202 -0.01254,-0.0324 -0.267295,-0.18987 -0.566147,-0.34994 -0.29885,-0.16006 -0.815396,-0.45467 -1.147876,-0.65468 -0.332481,-0.20001 -0.630484,-0.36365 -0.662226,-0.36365 -0.03175,0 -0.05772,-0.0324 -0.05772,-0.0719 0,-0.0396 -0.03056,-0.053 -0.06792,-0.03 -0.03736,0.0231 -0.06792,0.01 -0.06792,-0.0299 0,-0.0396 -0.04584,-0.0719 -0.101881,-0.0719 -0.05603,0 -0.10188,-0.0324 -0.10188,-0.0719 0,-0.0396 -0.03056,-0.053 -0.06792,-0.0299 -0.03736,0.0231 -0.06792,0.008 -0.06792,-0.034 0,-0.0418 -0.03056,-0.0571 -0.06792,-0.034 -0.03736,0.0231 -0.06792,0.01 -0.06792,-0.03 0,-0.0396 -0.04585,-0.0719 -0.101881,-0.0719 -0.05604,0 -0.101883,-0.0324 -0.101883,-0.0719 0,-0.0396 -0.03056,-0.053 -0.06792,-0.03 -0.03736,0.0231 -0.06792,0.008 -0.06792,-0.034 0,-0.0418 -0.02736,-0.059 -0.0608,-0.0384 -0.03344,0.0207 -0.08001,-0.0125 -0.103478,-0.0736 -0.02347,-0.0612 -0.0605,-0.0934 -0.08228,-0.0716 -0.02177,0.0218 -0.07455,0.01 -0.11726,-0.0266 -0.04272,-0.0364 -0.459719,-0.28321 -0.926674,-0.54851 -0.466953,-0.26529 -0.859259,-0.50896 -0.871789,-0.54147 -0.01254,-0.0325 -0.05073,-0.0418 -0.0849,-0.0207 -0.03417,0.0211 -0.06212,0.004 -0.06212,-0.0375 0,-0.0418 -0.02736,-0.059 -0.0608,-0.0384 -0.03344,0.0207 -0.07907,-0.01 -0.101399,-0.0682 -0.02233,-0.0582 -0.07138,-0.0868 -0.109,-0.0635 -0.03762,0.0233 -0.0684,0.008 -0.0684,-0.0337 0,-0.0418 -0.02736,-0.059 -0.0608,-0.0384 -0.03344,0.0207 -0.07907,-0.01 -0.101399,-0.0682 -0.02233,-0.0582 -0.07138,-0.0868 -0.109001,-0.0635 -0.03762,0.0233 -0.0684,0.008 -0.0684,-0.0337 0,-0.0418 -0.03056,-0.057 -0.06792,-0.034 -0.03736,0.0231 -0.06792,0.01 -0.06792,-0.03 0,-0.0396 -0.04585,-0.0719 -0.10188,-0.0719 -0.05604,0 -0.101883,-0.0324 -0.101883,-0.0719 0,-0.0396 -0.03056,-0.053 -0.06792,-0.03 -0.03736,0.0231 -0.06792,0.01 -0.06792,-0.0299 0,-0.0396 -0.04585,-0.0719 -0.10188,-0.0719 -0.05604,0 -0.101883,-0.0324 -0.101883,-0.0719 0,-0.0396 -0.02736,-0.055 -0.0608,-0.0343 -0.03344,0.0207 -0.07907,-0.01 -0.101399,-0.0682 -0.02233,-0.0582 -0.07138,-0.0868 -0.109001,-0.0635 -0.03762,0.0233 -0.0684,0.008 -0.0684,-0.0337 0,-0.0418 -0.03056,-0.0571 -0.06792,-0.034 -0.03736,0.0231 -0.06792,0.0102 -0.06792,-0.0286 0,-0.0388 -0.1299,-0.1362 -0.288663,-0.21644 -0.384175,-0.19416 -1.623558,-0.9509 -1.736728,-1.06041 -0.04931,-0.0477 -0.161711,-0.10484 -0.249788,-0.12694 -0.08807,-0.0221 -0.177416,-0.0852 -0.198533,-0.14025 -0.02111,-0.055 -0.06918,-0.081 -0.106796,-0.0578 -0.03762,0.0232 -0.0684,0.01 -0.0684,-0.0297 0,-0.0396 -0.04584,-0.0719 -0.101881,-0.0719 -0.05603,0 -0.10188,-0.0324 -0.10188,-0.0719 0,-0.0396 -0.02736,-0.055 -0.0608,-0.0343 -0.03344,0.0207 -0.07907,-0.01 -0.101402,-0.0682 -0.02233,-0.0582 -0.06817,-0.0888 -0.10188,-0.0679 -0.0337,0.0208 -0.07955,-0.01 -0.10188,-0.0679 -0.02233,-0.0582 -0.07138,-0.0868 -0.108998,-0.0635 -0.03762,0.0233 -0.0684,0.008 -0.0684,-0.0337 0,-0.0418 -0.02736,-0.059 -0.0608,-0.0384 -0.03344,0.0207 -0.07833,-0.008 -0.09975,-0.0639 -0.02143,-0.0558 -0.08248,-0.10148 -0.135691,-0.10148 -0.05321,0 -0.111805,-0.0393 -0.130212,-0.0872 -0.01842,-0.048 -0.174363,-0.15967 -0.34657,-0.24824 -0.172207,-0.0886 -0.477687,-0.33359 -0.678849,-0.54448 l -0.365747,-0.38345 -0.0509,-2.0342 c -0.02799,-1.1188 -0.01852,-6.54242 0.02106,-12.05249 0.07276,-10.12929 0.08879,-10.69196 0.322072,-11.30879 0.08555,-0.22621 0.317571,-0.44148 0.475824,-0.44148 0.224798,0 0.731853,0.24355 1.525008,0.7325 0.951402,0.58651 2.298004,1.37391 2.511145,1.46835 0.09444,0.0418 0.293978,0.15466 0.443404,0.2507 0.149426,0.096 1.326153,0.77756 2.614946,1.51449 1.288796,0.73692 2.389111,1.36708 2.445144,1.40034 0.105143,0.0624 3.735528,2.12506 4.279003,2.43116 1.051796,0.59239 3.889178,2.2547 4.916338,2.88029 2.18575,1.33121 3.17813,2.08218 3.27815,2.48067 0.0291,0.11594 -0.0147,9.92899 -0.055,12.31175 -0.002,0.0934 -0.0305,1.8814 -0.0642,3.97336 -0.102,6.32838 -0.22007,8.92931 -0.42292,9.31646 l -0.0799,0.15253 z"
         id="path367" /><path
         style="opacity:1;fill:#285fec;fill-opacity:1;stroke:none;stroke-width:0.667441;stroke-dasharray:none;stroke-opacity:1"
         d="m 110.00096,183.96727 c -0.16077,-0.19372 -0.24115,-2.87923 -0.23898,-7.98481 0.003,-7.9578 0.2492,-17.18392 0.48264,-18.11403 0.0222,-0.0885 0.18203,-0.25789 0.35512,-0.37633 0.17309,-0.11843 0.35032,-0.2502 0.39383,-0.29282 0.1276,-0.12499 1.08739,-0.71006 1.16482,-0.71006 0.0389,0 0.11506,-0.0442 0.16913,-0.0983 0.0985,-0.0985 0.30167,-0.2203 0.99812,-0.59828 0.7774,-0.42193 2.34939,-1.36542 2.49608,-1.49813 0.0841,-0.076 0.15282,-0.11516 0.15282,-0.0869 0,0.0576 0.47205,-0.21749 0.57733,-0.3365 0.077,-0.087 1.53509,-0.93212 1.96138,-1.13678 0.42932,-0.20612 1.89234,-1.0723 2.05098,-1.21428 0.0775,-0.0693 0.16153,-0.10543 0.18678,-0.0802 0.0252,0.0252 0.0459,0.0148 0.0459,-0.0232 0,-0.0638 2.29698,-1.44775 2.40283,-1.44775 0.10524,0 2.84306,-1.66067 2.87499,-1.74387 0.019,-0.0495 0.0637,-0.09 0.0994,-0.09 0.0357,0 0.48157,-0.2481 0.99087,-0.55133 0.5093,-0.30323 0.95874,-0.55613 0.99876,-0.562 0.04,-0.006 0.58357,-0.30893 1.20789,-0.67346 1.48484,-0.86699 2.6956,-1.50053 2.75473,-1.44144 0.0699,0.0699 0.089,1.50491 0.12455,9.37505 0.0177,3.92242 0.003,9.29659 -0.0316,11.94261 l -0.0638,4.81094 -0.2251,0.23224 c -0.1238,0.12773 -0.53235,0.44152 -0.90789,0.6973 -0.72705,0.49522 -5.21013,3.13459 -5.32422,3.13459 -0.0373,0 -0.0779,0.0239 -0.0904,0.053 -0.0188,0.0441 -1.0589,0.67041 -2.0263,1.22017 -0.31361,0.17822 -4.35144,2.51874 -4.48277,2.59843 -0.056,0.034 -0.6826,0.40064 -1.39237,0.81474 -0.70977,0.41411 -1.33634,0.78098 -1.39237,0.81529 -0.61324,0.37539 -4.144,2.40603 -4.72049,2.71489 -0.29885,0.16011 -0.63841,0.34813 -0.75458,0.41781 -0.11617,0.0697 -0.33573,0.17065 -0.48793,0.22434 -0.22683,0.08 -0.28995,0.0817 -0.35019,0.009 z"
         id="path368" /><path
         style="opacity:1;fill:#214fe6;fill-opacity:1;stroke:none;stroke-width:0.667441;stroke-dasharray:none;stroke-opacity:1"
         d="m 135.2091,169.13945 c -0.23454,-0.61362 -0.29672,-4.70218 -0.24305,-15.98082 l 0.0474,-9.95286 0.60075,-0.33676 c 0.33041,-0.18522 0.60074,-0.35706 0.60074,-0.38186 0,-0.0476 1.47811,-0.89515 1.59551,-0.91485 0.0945,-0.0159 2.69875,-1.5721 2.7467,-1.6414 0.0378,-0.0547 1.96982,-1.19821 2.04051,-1.20778 0.10617,-0.0144 0.40935,-0.19492 0.40935,-0.24378 0,-0.0314 0.0359,-0.057 0.0798,-0.057 0.09,0 2.12152,-1.1818 2.33143,-1.35624 0.0747,-0.0621 0.26574,-0.16903 0.42451,-0.23765 0.15876,-0.0686 0.28866,-0.14719 0.28866,-0.17461 0,-0.051 1.6729,-1.05021 1.75821,-1.05021 0.0604,0 2.54358,-1.46996 2.58871,-1.53245 0.0511,-0.0708 2.20971,-1.33884 2.46279,-1.44677 0.12105,-0.0516 0.72439,-0.3895 1.34077,-0.75086 1.39651,-0.8187 2.58752,-1.40938 2.86757,-1.42215 0.19323,-0.009 0.21875,0.0138 0.26619,0.23555 0.38976,1.82182 0.38074,19.94078 -0.0123,24.67639 -0.10717,1.29123 -0.11215,1.30891 -0.4308,1.52731 -0.60643,0.41565 -7.26708,4.3771 -10.19592,6.06406 -1.03503,0.59616 -0.83979,0.48187 -2.1395,1.25246 -0.61638,0.36545 -1.24295,0.731 -1.39237,0.81234 -0.14943,0.0813 -0.65374,0.37515 -1.12069,0.65289 -1.19597,0.71137 -3.00368,1.75549 -3.56584,2.05959 -0.26149,0.14145 -0.71144,0.39003 -0.99988,0.55239 -0.80201,0.45143 -2.02532,1.04186 -2.15866,1.04186 -0.0674,0 -0.15015,-0.0812 -0.19052,-0.18678 z"
         id="path369" /><path
         style="opacity:1;fill:#212fd3;fill-opacity:1;stroke:none;stroke-width:0.667441;stroke-dasharray:none;stroke-opacity:1"
         d="m 135.26581,198.87507 c -0.10206,-0.19069 -0.18807,-1.25815 -0.27478,-3.4101 -0.0529,-1.31275 -0.0609,-4.92436 -0.0266,-11.9915 l 0.0491,-10.11297 0.26111,-0.18768 c 0.1436,-0.10323 0.2611,-0.21807 0.2611,-0.25521 0,-0.0371 0.0259,-0.0515 0.0575,-0.032 0.0316,0.0196 0.14434,-0.055 0.25043,-0.16579 0.1061,-0.11074 0.21482,-0.20135 0.2416,-0.20135 0.0268,0 0.41076,-0.22458 0.85328,-0.49907 0.44252,-0.27449 0.98797,-0.60035 1.21211,-0.72413 0.65836,-0.36359 2.57797,-1.51326 2.61495,-1.56612 0.0445,-0.0637 1.57519,-0.95652 1.66633,-0.972 0.1189,-0.0202 2.16215,-1.20884 2.31665,-1.3477 0.08,-0.0719 0.19065,-0.13736 0.24586,-0.14547 0.0552,-0.008 2.11397,-1.17813 4.57502,-2.60006 6.31074,-3.64619 7.51299,-4.30655 7.59598,-4.17226 0.1333,0.21567 0.18614,3.58833 0.21931,13.99651 l 0.0367,11.51256 -2.29996,1.35593 c -1.26498,0.74576 -4.36305,2.59091 -6.88461,4.10032 -5.13991,3.07677 -11.22431,6.64874 -12.44395,7.30547 -0.43879,0.23627 -0.45864,0.24051 -0.5271,0.11259 z"
         id="path370" /><path
         style="opacity:1;fill:#142aa2;fill-opacity:1;stroke:none;stroke-width:0.667441;stroke-dasharray:none;stroke-opacity:1"
         d="m 109.96764,213.78309 c -0.11628,-0.54718 -0.19678,-10.05464 -0.11345,-13.39735 0.0419,-1.68104 0.0785,-4.98198 0.0814,-7.33543 0.003,-2.35345 0.0216,-4.37969 0.0417,-4.50275 0.0296,-0.18145 0.11524,-0.27669 0.45288,-0.50381 0.22899,-0.15403 0.48929,-0.35135 0.57844,-0.43848 0.0891,-0.0871 0.20141,-0.15842 0.24949,-0.15842 0.0481,0 0.1738,-0.0726 0.2794,-0.16141 0.10559,-0.0888 0.47471,-0.32244 0.82026,-0.51925 0.34554,-0.19681 0.62826,-0.38578 0.62826,-0.41992 0,-0.0342 0.0306,-0.0432 0.0679,-0.0201 0.0373,0.0231 0.0679,0.01 0.0679,-0.0299 0,-0.0396 0.034,-0.0719 0.0756,-0.0719 0.0416,0 0.53237,-0.26744 1.09067,-0.59431 0.55829,-0.32686 1.13715,-0.65619 1.28634,-0.73183 0.14919,-0.0756 0.2926,-0.16927 0.31868,-0.20807 0.0523,-0.0778 1.84584,-1.12553 2.1597,-1.26163 0.2735,-0.1186 2.77024,-1.55768 2.81197,-1.62078 0.042,-0.0635 1.5613,-0.94911 1.6283,-0.94911 0.0267,0 0.50411,-0.26384 1.06095,-0.58631 0.55683,-0.32246 1.14997,-0.6633 1.31807,-0.75741 0.16811,-0.0941 0.32157,-0.19517 0.34103,-0.22457 0.0474,-0.0716 2.38936,-1.42022 2.46625,-1.42022 0.08,0 2.37679,-1.30332 2.43021,-1.37903 0.0229,-0.0324 0.0534,-0.0505 0.0679,-0.0403 0.0145,0.0102 0.41855,-0.18945 0.89788,-0.44374 0.62666,-0.33244 0.89223,-0.44162 0.94523,-0.38862 0.1522,0.15219 0.23849,5.93631 0.24797,16.62123 l 0.008,8.83399 -0.16027,0.13936 c -0.23318,0.20275 -5.94131,3.6353 -6.25921,3.76394 -0.0373,0.0151 -0.58751,0.33553 -1.22257,0.71202 -1.68668,0.99995 -3.3912,1.99445 -5.16197,3.01173 -0.8592,0.49359 -1.60802,0.92462 -1.66406,0.95785 -0.056,0.0332 -1.03409,0.5987 -2.17346,1.25662 -1.13937,0.65793 -2.11742,1.22337 -2.17346,1.25655 -1.3,0.76975 -3.19837,1.76428 -3.36768,1.76428 -0.0515,0 -0.1083,-0.0688 -0.12616,-0.15282 z"
         id="path371" /><path
         style="opacity:1;fill:#7618e6;fill-opacity:1;stroke:none;stroke-width:0.667441;stroke-dasharray:none;stroke-opacity:1"
         d="m 105.95625,213.5586 c -0.2615,-0.0941 -0.4857,-0.19748 -0.49823,-0.22979 -0.0125,-0.0323 -0.0507,-0.0415 -0.0849,-0.0204 -0.0342,0.0211 -0.0621,0.004 -0.0621,-0.0375 0,-0.0418 -0.0306,-0.0571 -0.0679,-0.034 -0.0374,0.0231 -0.0679,0.01 -0.0679,-0.03 0,-0.0396 -0.0459,-0.0719 -0.10188,-0.0719 -0.056,0 -0.10188,-0.0324 -0.10188,-0.0719 0,-0.0396 -0.0306,-0.053 -0.0679,-0.0299 -0.0374,0.0231 -0.0679,0.008 -0.0679,-0.034 0,-0.0418 -0.0306,-0.0571 -0.0679,-0.034 -0.0374,0.0231 -0.0679,0.008 -0.0679,-0.034 0,-0.0418 -0.0306,-0.0571 -0.0679,-0.034 -0.0373,0.0231 -0.0679,0.008 -0.0679,-0.034 0,-0.0418 -0.0306,-0.0571 -0.0679,-0.034 -0.0374,0.0231 -0.0679,0.008 -0.0679,-0.034 0,-0.0418 -0.028,-0.0587 -0.0621,-0.0375 -0.0342,0.0211 -0.0724,0.0138 -0.0849,-0.0164 -0.0125,-0.0301 -0.29786,-0.20261 -0.63407,-0.38333 -0.3362,-0.18071 -0.79311,-0.44662 -1.01533,-0.59091 -0.22223,-0.14429 -0.44382,-0.26234 -0.49243,-0.26234 -0.0486,0 -0.0884,-0.0324 -0.0884,-0.0719 0,-0.0396 -0.0306,-0.053 -0.0679,-0.0299 -0.0374,0.0231 -0.0679,0.008 -0.0679,-0.034 0,-0.0418 -0.0306,-0.0571 -0.0679,-0.034 -0.0374,0.0231 -0.0679,0.01 -0.0679,-0.0299 0,-0.0396 -0.0458,-0.0719 -0.10188,-0.0719 -0.056,0 -0.10188,-0.0324 -0.10188,-0.0719 0,-0.0396 -0.0306,-0.053 -0.0679,-0.03 -0.0374,0.0231 -0.0679,0.008 -0.0679,-0.034 0,-0.0418 -0.0306,-0.0571 -0.0679,-0.034 -0.0374,0.0231 -0.0679,0.01 -0.0679,-0.03 0,-0.0396 -0.0459,-0.0719 -0.10188,-0.0719 -0.056,0 -0.10188,-0.0324 -0.10188,-0.0719 0,-0.0396 -0.0306,-0.053 -0.0679,-0.03 -0.0374,0.0231 -0.0679,0.008 -0.0679,-0.034 0,-0.0418 -0.0306,-0.0571 -0.0679,-0.034 -0.0374,0.0231 -0.0679,0.0143 -0.0679,-0.0196 0,-0.0339 -0.19072,-0.16152 -0.42383,-0.28372 -0.688542,-0.36092 -1.98014,-1.11024 -2.076999,-1.20496 -0.04931,-0.0482 -0.163925,-0.10632 -0.254704,-0.1291 -0.09078,-0.0228 -0.165052,-0.0705 -0.165052,-0.10599 0,-0.0355 -0.03056,-0.0457 -0.06792,-0.0226 -0.03735,0.0231 -0.06792,0.008 -0.06792,-0.034 0,-0.0418 -0.03056,-0.057 -0.06792,-0.034 -0.03736,0.0231 -0.06792,0.008 -0.06792,-0.034 0,-0.0418 -0.02736,-0.059 -0.0608,-0.0384 -0.03344,0.0207 -0.07907,-0.01 -0.101402,-0.0682 -0.02233,-0.0582 -0.07138,-0.0868 -0.108998,-0.0635 -0.03762,0.0233 -0.0684,0.008 -0.0684,-0.0337 0,-0.0418 -0.03056,-0.0571 -0.06792,-0.034 -0.03736,0.0231 -0.06792,0.008 -0.06792,-0.034 0,-0.0418 -0.02736,-0.059 -0.0608,-0.0384 -0.03344,0.0207 -0.07907,-0.01 -0.101399,-0.0682 -0.02233,-0.0582 -0.07138,-0.0868 -0.109,-0.0635 -0.03762,0.0233 -0.0684,0.008 -0.0684,-0.0337 0,-0.0418 -0.03056,-0.0571 -0.06792,-0.034 -0.03736,0.0231 -0.06792,0.008 -0.06792,-0.034 0,-0.0418 -0.03056,-0.0571 -0.06792,-0.034 -0.03736,0.0231 -0.06792,0.01 -0.06792,-0.029 0,-0.0391 -0.09933,-0.11509 -0.220742,-0.16896 -0.121407,-0.0539 -0.449974,-0.23689 -0.730147,-0.40672 -0.280173,-0.16983 -0.593458,-0.34311 -0.696188,-0.38506 -0.102729,-0.042 -0.186782,-0.10566 -0.186782,-0.14157 0,-0.0359 -0.03056,-0.0464 -0.06792,-0.0233 -0.03736,0.0231 -0.06792,0.008 -0.06792,-0.034 0,-0.0418 -0.02736,-0.059 -0.0608,-0.0384 -0.03344,0.0207 -0.07907,-0.01 -0.101401,-0.0682 -0.02233,-0.0582 -0.07138,-0.0868 -0.108998,-0.0635 -0.03762,0.0233 -0.0684,0.008 -0.0684,-0.0337 0,-0.0418 -0.03056,-0.0571 -0.06792,-0.034 -0.03736,0.0231 -0.06792,0.008 -0.06792,-0.034 0,-0.0418 -0.02736,-0.059 -0.0608,-0.0384 -0.03344,0.0207 -0.07907,-0.01 -0.101402,-0.0682 -0.02233,-0.0582 -0.07138,-0.0868 -0.108998,-0.0635 -0.03762,0.0233 -0.0684,0.008 -0.0684,-0.0337 0,-0.0418 -0.03056,-0.0571 -0.06792,-0.034 -0.03736,0.0231 -0.06792,0.008 -0.06792,-0.034 0,-0.0418 -0.02736,-0.059 -0.0608,-0.0384 -0.03344,0.0207 -0.07907,-0.01 -0.101402,-0.0682 -0.02233,-0.0582 -0.07138,-0.0868 -0.108998,-0.0635 -0.03762,0.0233 -0.0684,0.016 -0.0684,-0.0161 0,-0.0321 -0.1299,-0.12151 -0.288663,-0.19865 -0.158766,-0.0771 -0.678161,-0.37359 -1.154216,-0.65878 -0.476054,-0.28519 -0.896313,-0.51853 -0.93391,-0.51853 -0.03759,0 -0.06835,-0.0324 -0.06835,-0.0719 0,-0.0396 -0.02736,-0.055 -0.0608,-0.0343 -0.03344,0.0207 -0.07907,-0.01 -0.101402,-0.0682 -0.02233,-0.0582 -0.07138,-0.0868 -0.108997,-0.0635 -0.03762,0.0233 -0.0684,0.008 -0.0684,-0.0337 0,-0.0418 -0.02736,-0.059 -0.0608,-0.0384 -0.03344,0.0207 -0.07907,-0.01 -0.101402,-0.0682 -0.02233,-0.0582 -0.07138,-0.0868 -0.108998,-0.0635 -0.03762,0.0233 -0.0684,0.008 -0.0684,-0.0337 0,-0.0418 -0.03056,-0.0571 -0.06792,-0.034 -0.03736,0.0231 -0.06792,0.01 -0.06792,-0.0299 0,-0.0396 -0.04585,-0.0719 -0.10188,-0.0719 -0.05604,0 -0.101881,-0.0324 -0.101881,-0.0719 0,-0.0396 -0.03056,-0.053 -0.06792,-0.0299 -0.03736,0.0231 -0.06792,0.01 -0.06792,-0.03 0,-0.0396 -0.04585,-0.0719 -0.101881,-0.0719 -0.05604,0 -0.10188,-0.0324 -0.10188,-0.0719 0,-0.0396 -0.03056,-0.053 -0.06792,-0.03 -0.03736,0.0231 -0.06792,0.01 -0.06792,-0.0299 0,-0.0396 -0.04585,-0.0719 -0.10188,-0.0719 -0.05604,0 -0.101883,-0.0254 -0.101883,-0.0564 0,-0.031 -0.08405,-0.0982 -0.18678,-0.14919 -0.334018,-0.16587 -1.33904,-0.77036 -1.431084,-0.86076 -0.04931,-0.0484 -0.161713,-0.10614 -0.249788,-0.12825 -0.08808,-0.0221 -0.177416,-0.0852 -0.198532,-0.14025 -0.02111,-0.055 -0.06918,-0.081 -0.106797,-0.0578 -0.03762,0.0233 -0.0684,0.01 -0.0684,-0.0296 0,-0.0396 -0.04585,-0.0719 -0.10188,-0.0719 -0.05604,0 -0.101881,-0.0324 -0.101881,-0.0719 0,-0.0396 -0.03056,-0.053 -0.06792,-0.03 -0.03736,0.0231 -0.06792,0.01 -0.06792,-0.03 0,-0.0396 -0.04585,-0.0719 -0.101881,-0.0719 -0.05604,0 -0.101883,-0.0324 -0.101883,-0.0719 0,-0.0396 -0.03056,-0.053 -0.06792,-0.03 -0.03736,0.0231 -0.06792,0.01 -0.06792,-0.0299 0,-0.0396 -0.04585,-0.0719 -0.101881,-0.0719 -0.05604,0 -0.101883,-0.0357 -0.101883,-0.0792 0,-0.0436 -0.01717,-0.0621 -0.03815,-0.0411 -0.02098,0.021 -0.117142,-0.0351 -0.21368,-0.12452 -0.09654,-0.0895 -0.203703,-0.16267 -0.238139,-0.16267 -0.03444,0 -0.346215,-0.17366 -0.692848,-0.38592 L 84.209,200.95192 84.1605,197.65849 c -0.05861,-3.97954 0.01368,-19.23715 0.09722,-20.52202 0.09595,-1.47567 0.285787,-2.04525 0.697624,-2.09316 0.223661,-0.026 0.729771,0.19846 1.372357,0.60869 0.261496,0.16694 1.377093,0.83106 2.479104,1.47582 2.37581,1.39003 2.011465,1.17809 3.090391,1.79764 3.051358,1.75216 11.950924,6.96841 14.059584,8.24066 l 0.88296,0.53273 0.019,1.90142 c 0.13313,13.30245 0.0453,21.13853 -0.26333,23.50019 -0.0391,0.29885 -0.0918,0.56253 -0.11712,0.58595 -0.0254,0.0234 -0.26006,-0.0344 -0.52155,-0.12845 z"
         id="path372" /><path
         style="opacity:1;fill:#732ccc;fill-opacity:1;stroke:none;stroke-width:0.667441;stroke-dasharray:none;stroke-opacity:1"
         d="m 80.995399,199.182 c -0.130747,-0.0482 -0.458552,-0.19889 -0.728451,-0.33482 -0.269901,-0.13593 -0.53734,-0.24714 -0.594307,-0.24714 -0.05697,0 -0.103576,-0.0324 -0.103576,-0.0719 0,-0.0396 -0.03056,-0.053 -0.06792,-0.0299 -0.03736,0.0231 -0.06792,0.01 -0.06792,-0.03 0,-0.0396 -0.04584,-0.0719 -0.10188,-0.0719 -0.05603,0 -0.101881,-0.0324 -0.101881,-0.0719 0,-0.0396 -0.03056,-0.053 -0.06792,-0.03 -0.03736,0.0231 -0.06792,0.008 -0.06792,-0.034 0,-0.0418 -0.03056,-0.057 -0.06792,-0.034 -0.03736,0.0231 -0.06792,0.008 -0.06792,-0.034 0,-0.0418 -0.03056,-0.057 -0.06792,-0.034 -0.03736,0.0231 -0.06792,0.008 -0.06792,-0.034 0,-0.0418 -0.02736,-0.059 -0.0608,-0.0384 -0.03344,0.0207 -0.07907,-0.01 -0.101402,-0.0682 -0.02233,-0.0582 -0.07138,-0.0868 -0.108997,-0.0635 -0.03762,0.0232 -0.0684,0.008 -0.0684,-0.0337 0,-0.0418 -0.03056,-0.0571 -0.06792,-0.034 -0.03736,0.0231 -0.06792,0.008 -0.06792,-0.034 0,-0.0418 -0.03057,-0.0571 -0.06792,-0.034 -0.03736,0.0231 -0.06792,0.0131 -0.06792,-0.0222 0,-0.0353 -0.114617,-0.11858 -0.254703,-0.18505 -0.140087,-0.0665 -0.619318,-0.32976 -1.064961,-0.58507 -0.445646,-0.25531 -0.83534,-0.4642 -0.86599,-0.4642 -0.03065,0 -0.05573,-0.0324 -0.05573,-0.0719 0,-0.0396 -0.03056,-0.053 -0.06792,-0.0299 -0.03736,0.0231 -0.06792,0.008 -0.06792,-0.034 0,-0.0418 -0.02736,-0.059 -0.0608,-0.0384 -0.03344,0.0207 -0.07907,-0.01 -0.101402,-0.0682 -0.02233,-0.0582 -0.07138,-0.0868 -0.108998,-0.0635 -0.03762,0.0233 -0.0684,0.008 -0.0684,-0.0337 0,-0.0418 -0.03056,-0.0571 -0.06792,-0.034 -0.03736,0.0231 -0.06792,0.008 -0.06792,-0.034 0,-0.0418 -0.02736,-0.059 -0.0608,-0.0384 -0.03344,0.0207 -0.07907,-0.01 -0.101402,-0.0682 -0.02233,-0.0582 -0.07138,-0.0868 -0.108997,-0.0635 -0.03762,0.0232 -0.0684,0.008 -0.0684,-0.0337 0,-0.0418 -0.03056,-0.0571 -0.06792,-0.034 -0.03736,0.0231 -0.06792,0.01 -0.06792,-0.0299 0,-0.0396 -0.0433,-0.0719 -0.09622,-0.0719 -0.05292,0 -0.106407,-0.0274 -0.118859,-0.0609 -0.01246,-0.0335 -0.365024,-0.2474 -0.783489,-0.47528 -0.418468,-0.22789 -0.873556,-0.49082 -1.011309,-0.58431 -0.137753,-0.0935 -0.292039,-0.16996 -0.342863,-0.16996 -0.05082,0 -0.0924,-0.0306 -0.0924,-0.0679 0,-0.0374 -0.04585,-0.0679 -0.101884,-0.0679 -0.05603,0 -0.10188,-0.0324 -0.10188,-0.0719 0,-0.0396 -0.03056,-0.053 -0.06792,-0.03 -0.03736,0.0231 -0.06792,0.008 -0.06792,-0.034 0,-0.0418 -0.03056,-0.057 -0.06792,-0.034 -0.03736,0.0231 -0.06792,0.01 -0.06792,-0.03 0,-0.0396 -0.04585,-0.0719 -0.101881,-0.0719 -0.05604,0 -0.101883,-0.0324 -0.101883,-0.0719 0,-0.0396 -0.03056,-0.053 -0.06792,-0.03 -0.03736,0.0231 -0.06792,0.008 -0.06792,-0.034 0,-0.0418 -0.02736,-0.059 -0.0608,-0.0384 -0.03344,0.0207 -0.07907,-0.01 -0.101402,-0.0682 -0.02233,-0.0582 -0.07138,-0.0868 -0.108998,-0.0635 -0.03762,0.0233 -0.0684,0.008 -0.0684,-0.0337 0,-0.0418 -0.03056,-0.0571 -0.06792,-0.034 -0.03736,0.0231 -0.06792,0.008 -0.06792,-0.034 0,-0.0418 -0.02736,-0.059 -0.0608,-0.0384 -0.03344,0.0207 -0.07907,-0.01 -0.101401,-0.0682 -0.02233,-0.0582 -0.07138,-0.0868 -0.108998,-0.0635 -0.03762,0.0233 -0.0684,0.008 -0.0684,-0.0337 0,-0.0418 -0.03057,-0.0571 -0.06792,-0.034 -0.03736,0.0231 -0.06792,0.009 -0.06792,-0.0321 0,-0.0407 -0.05349,-0.0935 -0.118861,-0.11718 -0.203428,-0.0738 -1.679779,-0.9277 -1.703819,-0.98546 -0.01254,-0.0301 -0.05074,-0.0375 -0.0849,-0.0163 -0.03417,0.0211 -0.06212,0.004 -0.06212,-0.0375 0,-0.0418 -0.02736,-0.059 -0.0608,-0.0384 -0.03344,0.0207 -0.07907,-0.01 -0.101399,-0.0682 -0.02233,-0.0582 -0.07138,-0.0868 -0.109,-0.0635 -0.03762,0.0232 -0.0684,0.008 -0.0684,-0.0337 0,-0.0418 -0.03056,-0.0571 -0.06792,-0.034 -0.03736,0.0231 -0.06792,0.01 -0.06792,-0.03 0,-0.0396 -0.04585,-0.0719 -0.101883,-0.0719 -0.05603,0 -0.101881,-0.0324 -0.101881,-0.0719 0,-0.0396 -0.03056,-0.053 -0.06792,-0.0299 -0.03736,0.0231 -0.06792,0.008 -0.06792,-0.034 0,-0.0418 -0.03056,-0.0571 -0.06792,-0.034 -0.03736,0.0231 -0.06792,0.01 -0.06792,-0.0299 0,-0.0396 -0.04585,-0.0719 -0.10188,-0.0719 -0.05604,0 -0.101881,-0.0324 -0.101881,-0.0719 0,-0.0396 -0.03056,-0.053 -0.06792,-0.0299 -0.03736,0.0231 -0.06792,0.008 -0.06792,-0.034 0,-0.0418 -0.03056,-0.0571 -0.06792,-0.034 -0.03736,0.0231 -0.06792,0.0125 -0.06792,-0.0235 0,-0.0674 -0.250774,-0.22433 -1.018809,-0.6377 -0.242816,-0.13068 -0.594305,-0.33365 -0.781087,-0.45104 -0.186783,-0.11738 -0.393092,-0.232 -0.458465,-0.2547 -0.06537,-0.0227 -0.118862,-0.0701 -0.118862,-0.10529 0,-0.0352 -0.03056,-0.0451 -0.06792,-0.022 -0.03736,0.0231 -0.06792,0.008 -0.06792,-0.034 0,-0.0418 -0.02736,-0.059 -0.0608,-0.0384 -0.03344,0.0207 -0.07907,-0.01 -0.101402,-0.0682 -0.02233,-0.0582 -0.07138,-0.0868 -0.108998,-0.0635 -0.03762,0.0232 -0.0684,0.008 -0.0684,-0.0337 0,-0.0418 -0.03056,-0.0571 -0.06792,-0.034 -0.03736,0.0231 -0.06792,0.01 -0.06792,-0.0299 0,-0.0396 -0.04585,-0.0719 -0.10188,-0.0719 -0.05604,0 -0.101881,-0.0324 -0.101881,-0.0719 0,-0.0396 -0.03056,-0.053 -0.06792,-0.0299 -0.03736,0.0231 -0.06792,0.008 -0.06792,-0.034 0,-0.0418 -0.02736,-0.059 -0.0608,-0.0384 -0.03344,0.0207 -0.07907,-0.01 -0.101402,-0.0682 -0.02233,-0.0582 -0.07138,-0.0868 -0.108997,-0.0635 -0.03762,0.0233 -0.0684,0.0155 -0.0684,-0.0171 0,-0.0327 -0.129899,-0.13089 -0.288663,-0.21823 -0.704148,-0.38739 -2.262968,-1.32704 -2.308262,-1.39142 -0.03147,-0.0447 -0.05105,-0.0458 -0.05301,-0.003 -0.0016,0.0374 -0.03462,0.0138 -0.07314,-0.0524 -0.03852,-0.0662 -0.09871,-0.10256 -0.133776,-0.0809 -0.03506,0.0217 -0.06375,0.007 -0.06375,-0.0325 0,-0.0396 -0.04584,-0.0719 -0.101881,-0.0719 -0.05603,0 -0.10188,-0.0324 -0.10188,-0.0719 0,-0.0396 -0.03056,-0.053 -0.06792,-0.0299 -0.03736,0.0231 -0.06792,0.01 -0.06792,-0.03 0,-0.0396 -0.04585,-0.0719 -0.10188,-0.0719 -0.05603,0 -0.101881,-0.0357 -0.101881,-0.0792 0,-0.0436 -0.01717,-0.0621 -0.03815,-0.0411 -0.02098,0.021 -0.117138,-0.0351 -0.21368,-0.12453 -0.09654,-0.0895 -0.200676,-0.16267 -0.231412,-0.16267 -0.07835,0 -0.971299,-0.58303 -1.059352,-0.69168 -0.119735,-0.14773 -0.231103,-2.26655 -0.356346,-6.77959 -0.06812,-2.45462 -0.02106,-14.80039 0.0655,-17.18393 0.05761,-1.58634 0.123137,-2.06619 0.299376,-2.19229 0.196451,-0.14055 1.388896,0.32221 2.417038,0.938 0.205462,0.12306 1.152953,0.66609 2.105541,1.20674 1.949317,1.10636 5.593585,3.22217 7.335432,4.25885 0.19535,0.11626 1.326484,0.7677 1.596136,0.91924 0.149426,0.084 0.66902,0.38899 1.154653,0.67781 0.485632,0.28883 1.005226,0.59486 1.154649,0.68007 0.149426,0.0852 1.005226,0.58908 1.90178,1.11971 0.896554,0.53063 1.721789,1.01831 1.833859,1.08374 0.758986,0.44311 2.290937,1.38382 2.910639,1.7873 l 0.737179,0.47998 -0.03543,12.16282 c -0.03584,12.30468 -0.05987,13.45995 -0.287126,13.80679 -0.116147,0.17727 -0.116837,0.17736 -0.438634,0.0587 z"
         id="path373" /><path
         style="opacity:1;fill:#a66bdd;fill-opacity:1;stroke:none;stroke-width:0.667441;stroke-dasharray:none;stroke-opacity:1"
         d="m 80.638338,169.47047 c -0.359753,-0.18316 -0.671099,-0.31601 -0.691882,-0.29523 -0.0208,0.0208 -0.03779,2.6e-4 -0.03779,-0.0455 0,-0.0458 -0.03057,-0.0644 -0.06792,-0.0413 -0.03736,0.0231 -0.06792,0.008 -0.06792,-0.034 0,-0.0418 -0.03056,-0.0571 -0.06792,-0.034 -0.03736,0.0231 -0.06792,0.008 -0.06792,-0.034 0,-0.0418 -0.03056,-0.0571 -0.06792,-0.034 -0.03736,0.0231 -0.06792,0.01 -0.06792,-0.03 0,-0.0396 -0.04585,-0.0719 -0.10188,-0.0719 -0.05603,0 -0.10188,-0.0324 -0.10188,-0.0719 0,-0.0396 -0.03056,-0.053 -0.06792,-0.03 -0.03736,0.0231 -0.06792,0.008 -0.06792,-0.034 0,-0.0418 -0.03056,-0.0571 -0.06792,-0.034 -0.03736,0.0231 -0.06792,0.0146 -0.06792,-0.0188 0,-0.0334 -0.175746,-0.14812 -0.390546,-0.25482 -0.214796,-0.1067 -0.764804,-0.40206 -1.222235,-0.65635 -0.45743,-0.2543 -0.862406,-0.46235 -0.899948,-0.46235 -0.03754,0 -0.06826,-0.0306 -0.06826,-0.0679 0,-0.0374 -0.04585,-0.0679 -0.101881,-0.0679 -0.05604,0 -0.10188,-0.0324 -0.10188,-0.0719 0,-0.0396 -0.03057,-0.053 -0.06792,-0.0299 -0.03736,0.0231 -0.06792,0.008 -0.06792,-0.034 0,-0.0418 -0.03056,-0.0571 -0.06792,-0.034 -0.03736,0.0231 -0.06792,0.008 -0.06792,-0.034 0,-0.0418 -0.03056,-0.057 -0.06792,-0.034 -0.03736,0.0231 -0.06792,0.01 -0.06792,-0.03 0,-0.0396 -0.04585,-0.0719 -0.10188,-0.0719 -0.05604,0 -0.101883,-0.0324 -0.101883,-0.0719 0,-0.0396 -0.03056,-0.053 -0.06792,-0.03 -0.03736,0.0231 -0.06792,0.008 -0.06792,-0.034 0,-0.0418 -0.03056,-0.0571 -0.06792,-0.034 -0.03736,0.0231 -0.06792,0.008 -0.06792,-0.034 0,-0.0418 -0.02736,-0.059 -0.0608,-0.0384 -0.03344,0.0207 -0.07907,-0.01 -0.101402,-0.0682 -0.02233,-0.0582 -0.07138,-0.0868 -0.108997,-0.0635 -0.03762,0.0233 -0.0684,0.008 -0.0684,-0.0337 0,-0.0418 -0.02795,-0.0587 -0.06212,-0.0376 -0.03417,0.0211 -0.07237,0.0138 -0.0849,-0.0163 -0.01251,-0.0301 -0.362206,-0.24309 -0.777062,-0.4733 -0.414856,-0.23022 -0.919168,-0.52766 -1.120691,-0.661 -0.201525,-0.13333 -0.435178,-0.26006 -0.519231,-0.28161 -0.08405,-0.0216 -0.152821,-0.0682 -0.152821,-0.10375 0,-0.0355 -0.03056,-0.0457 -0.06792,-0.0226 -0.03736,0.0231 -0.06792,0.008 -0.06792,-0.034 0,-0.0418 -0.03056,-0.0571 -0.06792,-0.034 -0.03735,0.0231 -0.06792,0.01 -0.06792,-0.0299 0,-0.0396 -0.04585,-0.0719 -0.101883,-0.0719 -0.05603,0 -0.10188,-0.0324 -0.10188,-0.0719 0,-0.0396 -0.03057,-0.053 -0.06792,-0.0299 -0.03735,0.0231 -0.06792,0.008 -0.06792,-0.034 0,-0.0418 -0.03057,-0.0571 -0.06792,-0.034 -0.03736,0.0231 -0.06792,0.01 -0.06792,-0.0299 0,-0.0396 -0.04585,-0.0719 -0.10188,-0.0719 -0.05604,0 -0.10188,-0.0324 -0.10188,-0.0719 0,-0.0396 -0.03057,-0.053 -0.06792,-0.0299 -0.03736,0.0231 -0.06792,0.008 -0.06792,-0.034 0,-0.0418 -0.03056,-0.0571 -0.06792,-0.034 -0.03736,0.0231 -0.06792,0.009 -0.06792,-0.0316 0,-0.0405 -0.06877,-0.10005 -0.152821,-0.13237 -0.185063,-0.0711 -1.290889,-0.70768 -1.550083,-0.89224 -0.102235,-0.0728 -0.231383,-0.13237 -0.286993,-0.13237 -0.05561,0 -0.119446,-0.0478 -0.141856,-0.10618 -0.02241,-0.0584 -0.07153,-0.0872 -0.109149,-0.0639 -0.03762,0.0233 -0.0684,0.008 -0.0684,-0.0337 0,-0.0418 -0.03056,-0.057 -0.06792,-0.034 -0.03736,0.0231 -0.06792,0.01 -0.06792,-0.03 0,-0.0396 -0.04584,-0.0719 -0.101881,-0.0719 -0.05603,0 -0.10188,-0.0324 -0.10188,-0.0719 0,-0.0396 -0.03056,-0.053 -0.06792,-0.03 -0.03736,0.0231 -0.06792,0.008 -0.06792,-0.034 0,-0.0418 -0.02736,-0.059 -0.0608,-0.0384 -0.03344,0.0207 -0.07907,-0.01 -0.101399,-0.0682 -0.02233,-0.0582 -0.07138,-0.0868 -0.109,-0.0635 -0.03762,0.0233 -0.0684,0.008 -0.0684,-0.0337 0,-0.0418 -0.03056,-0.0571 -0.06792,-0.034 -0.03736,0.0231 -0.06792,0.01 -0.06792,-0.03 0,-0.0396 -0.04585,-0.0719 -0.10188,-0.0719 -0.05604,0 -0.101883,-0.0324 -0.101883,-0.0719 0,-0.0396 -0.03056,-0.053 -0.06792,-0.03 -0.03736,0.0231 -0.06792,0.008 -0.06792,-0.034 0,-0.0418 -0.03056,-0.0571 -0.06792,-0.034 -0.03736,0.0231 -0.06792,0.009 -0.06792,-0.0316 0,-0.0405 -0.07018,-0.10029 -0.155964,-0.13291 -0.232807,-0.0885 -1.368745,-0.76589 -1.395032,-0.83188 -0.01254,-0.0315 -0.05074,-0.0399 -0.0849,-0.0188 -0.03417,0.0211 -0.06212,0.004 -0.06212,-0.0376 0,-0.0418 -0.03056,-0.0571 -0.06792,-0.034 -0.03736,0.0231 -0.06792,0.01 -0.06792,-0.0299 0,-0.0396 -0.04584,-0.0719 -0.101881,-0.0719 -0.05603,0 -0.10188,-0.0324 -0.10188,-0.0719 0,-0.0396 -0.03056,-0.053 -0.06792,-0.03 -0.03736,0.0231 -0.06792,0.01 -0.06792,-0.03 0,-0.0396 -0.04584,-0.0719 -0.101881,-0.0719 -0.05603,0 -0.10188,-0.0324 -0.10188,-0.0719 0,-0.0396 -0.03056,-0.053 -0.06792,-0.0299 -0.03736,0.0231 -0.06792,0.008 -0.06792,-0.034 0,-0.0418 -0.02736,-0.059 -0.0608,-0.0384 -0.03344,0.0207 -0.07907,-0.01 -0.101399,-0.0682 -0.02233,-0.0582 -0.07138,-0.0868 -0.109,-0.0635 -0.03762,0.0232 -0.0684,0.008 -0.0684,-0.0337 0,-0.0418 -0.03056,-0.057 -0.06792,-0.034 -0.03736,0.0231 -0.06792,0.01 -0.06792,-0.03 0,-0.0396 -0.04585,-0.0719 -0.10188,-0.0719 -0.05604,0 -0.101883,-0.0324 -0.101883,-0.0719 0,-0.0396 -0.03056,-0.053 -0.06792,-0.03 -0.03736,0.0231 -0.06792,0.008 -0.06792,-0.034 0,-0.0418 -0.02736,-0.059 -0.0608,-0.0384 -0.03344,0.0207 -0.07907,-0.01 -0.101402,-0.0682 -0.02233,-0.0582 -0.07138,-0.0868 -0.108997,-0.0635 -0.03762,0.0233 -0.0684,0.008 -0.0684,-0.0337 0,-0.0418 -0.03057,-0.0571 -0.06792,-0.034 -0.03736,0.0231 -0.06792,0.0103 -0.06792,-0.0284 0,-0.0387 -0.114615,-0.12618 -0.254701,-0.19443 -0.414343,-0.20186 -1.611201,-0.91778 -1.635897,-0.97854 -0.01254,-0.0308 -0.05074,-0.0388 -0.0849,-0.0176 -0.03417,0.0211 -0.06212,0.006 -0.06212,-0.0335 0,-0.0396 -0.04585,-0.0719 -0.101881,-0.0719 -0.05604,0 -0.10188,-0.0324 -0.10188,-0.0719 0,-0.0396 -0.03057,-0.053 -0.06792,-0.0299 -0.03736,0.0231 -0.06792,0.008 -0.06792,-0.034 0,-0.0418 -0.02736,-0.059 -0.0608,-0.0384 -0.03344,0.0207 -0.07907,-0.01 -0.101401,-0.0682 -0.02233,-0.0582 -0.07138,-0.0868 -0.108998,-0.0635 -0.03762,0.0233 -0.0684,0.008 -0.0684,-0.0337 0,-0.0418 -0.02736,-0.059 -0.0608,-0.0384 -0.03344,0.0207 -0.07907,-0.01 -0.101401,-0.0682 -0.02233,-0.0582 -0.07138,-0.0868 -0.108998,-0.0635 -0.03762,0.0233 -0.0684,0.008 -0.0684,-0.0337 0,-0.0418 -0.03056,-0.0571 -0.06792,-0.034 -0.03736,0.0231 -0.06792,0.01 -0.06792,-0.03 0,-0.0396 -0.04585,-0.0719 -0.10188,-0.0719 -0.05603,0 -0.101881,-0.0324 -0.101881,-0.0719 0,-0.0396 -0.03056,-0.053 -0.06792,-0.03 -0.03736,0.0231 -0.06792,0.01 -0.06792,-0.0299 0,-0.0396 -0.04585,-0.0719 -0.10188,-0.0719 -0.05603,0 -0.101881,-0.0247 -0.101881,-0.0548 0,-0.0302 -0.243795,-0.18474 -0.541769,-0.34351 -0.297973,-0.15876 -0.560649,-0.31921 -0.583723,-0.35655 -0.02307,-0.0373 -0.08433,-1.14353 -0.136129,-2.45822 -0.05179,-1.31468 -0.125121,-3.12388 -0.162948,-4.02043 -0.08321,-1.97215 -0.09205,-6.35058 -0.01283,-6.35058 0.03128,0 0.077,-1.33719 0.101611,-2.97153 0.06516,-4.32747 0.22021,-7.83158 0.424497,-9.5938 0.127093,-1.09631 0.123548,-1.08673 0.402032,-1.08673 0.321395,0 0.505727,0.0827 1.03297,0.46347 0.415208,0.29986 2.263312,1.36338 2.430828,1.39886 0.03736,0.008 0.20546,0.097 0.373563,0.19802 0.168105,0.10101 2.063091,1.18651 4.211081,2.41223 3.914614,2.23382 7.97097,4.58175 9.169292,5.30743 0.05603,0.0339 1.01881,0.60144 2.1395,1.26111 1.12069,0.65968 2.136272,1.27353 2.256848,1.36411 0.800322,0.60124 0.944822,1.9127 0.882005,8.00493 -0.09974,9.67346 -0.140515,12.50094 -0.220369,15.28215 -0.05061,1.76273 -0.166579,3.65669 -0.227748,3.71957 -0.02774,0.0285 -0.344781,-0.098 -0.704533,-0.28117 z"
         id="path374" /></g></g></svg>
